<svg width="9670" height="194" xmlns="http://www.w3.org/2000/svg"><g stroke="#222" stroke-width="7" fill="none" fill-rule="evenodd" stroke-linecap="round" stroke-linejoin="round"><path d="M29.4 89.8c.7-3.3 4.4-51.7 7.1-70.9C38.9 1.6 52.6 4.5 52.6 4.5l39.3 4.7s13-.3 12 15.4M61.1 19.2l18.4 2.2M44.7 69.8l36.1 4.3M42.3 98.1l27.7 3.3M43.7 84.3l36.8 4.8M90.2 159.3s0 16-19.4 14.2c-14-1.3-38.3-5.7-38.3-5.7-2.7-1.1-10.2-3.4-10.1-15.8"/><path d="M25.7 97s13.5 3.2 11.3 14.8c-1.8 9.9-11.3 11.7-16.1 11.1-9.9-1.2-17-9.1-17-18.2 0-12.5 10-22.7 25.1-20.1"/><path d="M24 123.5c-3.1-.6-13.7-3.2-16.1 6.2-2.1 8.1 2.9 16.5 14.5 19.1 4.7 1.1 12.4.4 14.3-6.7 3.5-13.3-9.6-17.9-12.7-18.6zM35.6 169c-5.4 4.5-5.6 14.7 6.1 19.2 6.5 2.5 17.4 3.4 21-1.5 2.1-2.8 5.5-11-5-14.8M29 93.8c.3-1.4 1.3-11.9 2.5-25M33 38c-5.7-3.7-17.3-5-21.3 5.3-4.2 10.8 13.8 22.5 18.6 24"/><path d="M64.9 177.9c17.6 10.5 47.9 12.6 63.8-1.9 26-23.7 15.7-51.1 12.7-59.9-5-14.7-27.7-33.5-19.5-53 3-7.1 17.1-24.8 5.2-31.5-12.1-6.8-24 8.9-28.3 18.1-8.6 18.1-6.5 35.7 3.6 52.3-14.8 7.5-10.4 39.9.7 45.4M64.9 177.9c17.6 10.5 47.9 12.6 63.8-1.9M653.4 128.7c-.1 1.2-3.2 30.6-3.2 30.6M663.9 24.5c-.3 4.7-2.7 28.5-5.4 54.9M933.3 130.2c-1.8 17-3 29.1-3 29.1M943.9 24.5c-.3 5.2-3.2 33.9-6.3 63.5M1212.9 133.5c-1.6 15.2-2.7 25.8-2.7 25.8M1223.9 24.5c-.3 5.3-3.3 35.1-6.5 65.3M1493.3 129.9c-1.8 17.2-3.1 29.4-3.1 29.4M1503.9 24.5c-.4 6.5-4.9 50-8.6 85.9M1773.4 129.6c-1.6 15.6-3.2 29.8-3.2 29.8M1777.1 93.5c0 .2-.1.5-.1.7-.4 4.2-1.1 10.2-1.5 14.3M1783.9 24.5c-.1 2.3-.8 9.4-1.8 19.1M2053.4 129.4c-1.6 15.5-3.2 29.9-3.2 29.9M2057.1 93.2c-.5 4.8-1.1 11.1-1.6 15.8M2063.9 24.5c-.1 2.2-.8 8.9-1.7 18.2M2333.2 129.8c-1.7 16.8-3.1 29.6-3.1 29.6M2337.2 92.7c-.5 4.8-1.2 11.6-1.7 16.2M2343.9 24.5c-.1 2.2-.7 8.5-1.6 17.3M621.1 19.2l18.4 2.2M604.7 69.8l36.1 4.3M602.3 98.1l27.7 3.3M603.7 84.3l33.3 4.4M650.2 159.3s0 16-19.4 14.2c-14-1.3-38.3-5.7-38.3-5.7-2.7-1.1-10.2-3.4-10.1-15.8"/><path d="M589.4 89.8c.7-3.3 4.4-51.7 7.1-70.9 2.4-17.3 16.1-14.4 16.1-14.4l39.3 4.7s13-.3 12 15.4"/><path d="M585.7 97s13.5 3.2 11.3 14.8c-1.8 9.9-11.3 11.7-16.1 11.1-9.9-1.2-17-9.1-17-18.2 0-12.5 10-22.7 25.1-20.1"/><path d="M584 123.5c-3.1-.6-13.7-3.2-16.1 6.2-2.1 8.1 2.9 16.5 14.5 19.1 4.7 1.1 12.4.4 14.3-6.7 3.5-13.3-9.6-17.9-12.7-18.6zM595.6 169c-5.4 4.5-5.6 14.7 6.1 19.2 6.5 2.5 17.4 3.4 21-1.5 2.1-2.8 5.5-11-5-14.8M589 93.8c.3-1.4 1.3-11.9 2.5-25M593 38c-5.7-3.7-17.3-5-21.3 5.3-4.2 10.8 13.8 22.5 18.6 24M660.9 105.2c1.6 4.7 5.5 5.1 8.3 4.7M662.7 103c-14.8 7.5-10.4 39.9.7 45.4"/><path d="M624.9 177.9c17.6 10.5 47.9 12.6 63.8-1.9 26-23.7 15.4-51.4 12.7-59.9-10.3-31.1-30.1-42-52.3-33.2-10 4-25.3 16.3-16 28.4 6 7.8 17.6 1.3 22.6-2.8 1.8-1.5 7.7-6.5 9.7-8.7M901.1 19.2l18.4 2.2M883.5 78.4l36 4.2M881 106.7l27.7 3.3M882.5 92.9l36.7 4.7M930.2 159.3s0 16-19.4 14.2c-14-1.3-38.3-5.7-38.3-5.7-2.7-1.1-10.2-3.4-10.1-15.8M869.4 89.8c.7-3.3 4.4-51.7 7.1-70.9 2.4-17.3 16.1-14.4 16.1-14.4l39.3 4.7s13-.3 12 15.4"/><path d="M865.7 97s13.5 3.2 11.3 14.8c-1.8 9.9-11.3 11.7-16.1 11.1-9.9-1.2-17-9.1-17-18.2 0-12.5 10-22.7 25.1-20.1"/><path d="M864 123.5c-3.1-.6-13.7-3.2-16.1 6.2-2.1 8.1 2.9 16.5 14.5 19.1 4.7 1.1 12.4.4 14.3-6.7 3.5-13.3-9.6-17.9-12.7-18.6zM875.6 169c-5.4 4.5-5.6 14.7 6.1 19.2 6.5 2.5 17.4 3.4 21-1.5 2.1-2.8 5.5-11-5-14.8M869 93.8c.3-1.4 1.3-11.9 2.5-25M873 38c-5.7-3.7-17.3-5-21.3 5.3-4.2 10.8 13.8 22.5 18.6 24M1181.1 19.2l18.4 2.2M1210.2 159.3s0 16-19.4 14.2c-14-1.3-38.3-5.7-38.3-5.7-2.7-1.1-10.2-3.4-10.1-15.8M1149.4 89.8c.7-3.3 4.4-51.7 7.1-70.9 2.4-17.3 16.1-14.4 16.1-14.4l39.3 4.7s13-.3 12 15.4"/><path d="M1145.7 97s13.5 3.2 11.3 14.8c-1.8 9.9-11.3 11.7-16.1 11.1-9.9-1.2-17-9.1-17-18.2 0-12.5 10-22.7 25.1-20.1"/><path d="M1144 123.5c-3.1-.6-13.7-3.2-16.1 6.2-2.1 8.1 2.9 16.5 14.5 19.1 4.7 1.1 12.4.4 14.3-6.7 3.5-13.3-9.6-17.9-12.7-18.6zM1155.6 169c-5.4 4.5-5.6 14.7 6.1 19.2 6.5 2.5 17.4 3.4 21-1.5 2.1-2.8 5.5-11-5-14.8M1149 93.8c.3-1.4 1.3-11.9 2.5-25M1153 38c-5.7-3.7-17.3-5-21.3 5.3-4.2 10.8 13.8 22.5 18.6 24M1163.5 80.4l36 4.2M1161 108.7l27.7 3.3M1162.5 94.9l36.7 4.7M943.5 115l8.4-1.5M933.6 129c1.1 8.8 4.8 16.9 9.9 19.5M1461.1 19.2l18.4 2.2M1490.2 159.3s0 16-19.4 14.2c-14-1.3-38.3-5.7-38.3-5.7-2.7-1.1-10.2-3.4-10.1-15.8M1429.4 89.8c.7-3.3 4.4-51.7 7.1-70.9 2.4-17.3 16.1-14.4 16.1-14.4l39.3 4.7s13-.3 12 15.4"/><path d="M1425.7 97s13.5 3.2 11.3 14.8c-1.8 9.9-11.3 11.7-16.1 11.1-9.9-1.2-17-9.1-17-18.2 0-12.5 10-22.7 25.1-20.1"/><path d="M1424 123.5c-3.1-.6-13.7-3.2-16.1 6.2-2.1 8.1 2.9 16.5 14.5 19.1 4.7 1.1 12.4.4 14.3-6.7 3.5-13.3-9.6-17.9-12.7-18.6zM1435.6 169c-5.4 4.5-5.6 14.7 6.1 19.2 6.5 2.5 17.4 3.4 21-1.5 2.1-2.8 5.5-11-5-14.8M1429 93.8c.3-1.4 1.3-11.9 2.5-25M1433 38c-5.7-3.7-17.3-5-21.3 5.3-4.2 10.8 13.8 22.5 18.6 24M1448.5 30.2l27.7 3.3M1447.4 44.9l19.9 2.4"/><path d="M1464.9 177.9c17.6 10.5 47.9 12.6 63.8-1.9 26-23.7 15.4-51.4 12.7-59.9-.8-1.9-5.6-14.8-6.4-16.8-4.1-10.9-11.1-23.4-5.4-35.4 3.7-7.9 19.4-22.1 12.2-31.3-6-7.7-16.3-2.8-22.2 1.6-18 13.6-22 37-15.6 57.6 0 0 3.5 8.5-1.4 11.3-14.8 7.5-10.4 39.9.7 45.4M1741.1 19.2l18.4 2.2M1770.2 159.3s0 16-19.4 14.2c-14-1.3-38.3-5.7-38.3-5.7-2.7-1.1-10.2-3.4-10.1-15.8M1709.4 89.8c.7-3.3 4.4-51.7 7.1-70.9 2.4-17.3 16.1-14.4 16.1-14.4l39.3 4.7s13-.3 12 15.4"/><path d="M1705.7 97s13.5 3.2 11.3 14.8c-1.8 9.9-11.3 11.7-16.1 11.1-9.9-1.2-17-9.1-17-18.2 0-12.5 10-22.7 25.1-20.1"/><path d="M1704 123.5c-3.1-.6-13.7-3.2-16.1 6.2-2.1 8.1 2.9 16.5 14.5 19.1 4.7 1.1 12.4.4 14.3-6.7 3.5-13.3-9.6-17.9-12.7-18.6zM1715.6 169c-5.4 4.5-5.6 14.7 6.1 19.2 6.5 2.5 17.4 3.4 21-1.5 2.1-2.8 5.5-11-5-14.8M1709 93.8c.3-1.4 1.3-11.9 2.5-25M1713 38c-5.7-3.7-17.3-5-21.3 5.3-4.2 10.8 13.8 22.5 18.6 24"/><path d="M1744.9 177.9c17.6 10.5 47.9 12.6 63.8-1.9 26-23.7 15.7-51.1 12.7-59.9-5-14.7-27.7-33.5-19.5-53 3-7.1 17.1-24.8 5.2-31.5-12.1-6.8-24 8.9-28.3 18.1-8.6 18.1-6.5 35.7 3.6 52.3-14.8 7.5-10.4 39.9.7 45.4M2021.1 19.2l18.4 2.2M2050.2 159.3s0 16-19.4 14.2c-14-1.3-38.3-5.7-38.3-5.7-2.7-1.1-10.2-3.4-10.1-15.8M1989.4 89.8c.7-3.3 4.4-51.7 7.1-70.9 2.4-17.3 16.1-14.4 16.1-14.4l39.3 4.7s13-.3 12 15.4"/><path d="M1985.7 97s13.5 3.2 11.3 14.8c-1.8 9.9-11.3 11.7-16.1 11.1-9.9-1.2-17-9.1-17-18.2 0-12.5 10-22.7 25.1-20.1"/><path d="M1984 123.5c-3.1-.6-13.7-3.2-16.1 6.2-2.1 8.1 2.9 16.5 14.5 19.1 4.6 1.1 12.4.4 14.3-6.7 3.5-13.3-9.6-17.9-12.7-18.6zM1995.6 169c-5.4 4.5-5.6 14.7 6.1 19.2 6.5 2.5 17.4 3.4 21-1.5 2.1-2.8 5.5-11-5-14.8M1989 93.8c.3-1.4 1.3-11.9 2.5-25M1993 38c-5.7-3.7-17.3-5-21.3 5.3-4.2 10.8 13.8 22.5 18.6 24"/><path d="M2024.9 177.9c17.6 10.5 47.9 12.6 63.8-1.9 26-23.7 15.7-51.1 12.7-59.9-5-14.7-27.7-33.5-19.5-53 3-7.1 17.1-24.8 5.2-31.5-12.1-6.8-24 8.9-28.3 18.1-8.6 18.1-6.5 35.7 3.6 52.3-14.8 7.5-10.4 39.9.7 45.4M2613.4 128.7c-.1 1.2-3.2 30.6-3.2 30.6M2623.9 24.5c-.3 4.7-2.7 28.5-5.4 54.9M2893.3 130.2c-1.8 17-3 29.1-3 29.1M2903.9 24.5c-.3 5.2-3.2 33.9-6.3 63.5M3172.9 133.5c-1.6 15.2-2.7 25.8-2.7 25.8M3183.9 24.5c-.3 5.3-3.3 35.1-6.5 65.3M3453.3 129.9c-1.8 17.2-3.1 29.4-3.1 29.4M3463.9 24.5c-.4 6.5-4.9 50-8.6 85.9M3733.4 129.8c-1.6 15.6-3.2 29.7-3.2 29.7M3737.1 93.5c0 .2-.1.5-.1.7-.4 4.2-1.2 11.6-1.6 15.7M3743.9 24.5c-.1 2.3-.8 9.4-1.8 19.1M4013.4 130.9c-1.6 15.5-3.2 28.4-3.2 28.4M4017.1 93.2c-.5 4.8-1.2 11.9-1.7 16.6M4023.9 24.5c-.1 2.2-.8 8.9-1.7 18.2M4293.2 130.6c-1.7 16.8-3 28.7-3 28.7M4297.1 92.7c-.5 4.8-1.2 11.7-1.7 16.3M4303.9 24.5c-.1 2.2-.7 8.5-1.6 17.3M2581.1 19.2l18.4 2.2M2610.2 159.3s0 16-19.4 14.2c-14-1.3-38.3-5.7-38.3-5.7-2.7-1.1-10.2-3.4-10.1-15.8"/><path d="M2549.4 89.8c.7-3.3 4.4-51.7 7.1-70.9 2.4-17.3 16.1-14.4 16.1-14.4l39.3 4.7s13-.3 12 15.4"/><path d="M2545.7 97s13.5 3.2 11.3 14.8c-1.8 9.9-11.3 11.7-16.1 11.1-9.9-1.2-17-9.1-17-18.2 0-12.5 10-22.7 25.1-20.1"/><path d="M2544 123.5c-3.1-.6-13.7-3.2-16.1 6.2-2.1 8.1 2.9 16.5 14.5 19.1 4.6 1.1 12.4.4 14.3-6.7 3.5-13.3-9.6-17.9-12.7-18.6zM2555.6 169c-5.4 4.5-5.6 14.7 6.1 19.2 6.5 2.5 17.4 3.4 21-1.5 2.1-2.8 5.5-11-5-14.8M2549 93.8c.3-1.4 1.3-11.9 2.5-25M2553 38c-5.7-3.7-17.3-5-21.3 5.3-4.2 10.8 13.8 22.5 18.6 24M2620.9 105.2c1.6 4.7 5.5 5.1 8.3 4.7M2622.7 103c-14.8 7.5-10.4 39.9.7 45.4"/><path d="M2584.9 177.9c17.6 10.5 47.9 12.6 63.8-1.9 26-23.7 15.4-51.4 12.7-59.9-10.3-31.1-30.1-42-52.3-33.2-10 4-25.3 16.3-16 28.4 6 7.8 17.6 1.3 22.6-2.8 1.8-1.5 7.7-6.5 9.7-8.7M2861.1 19.2l18.4 2.2M2839.9 121.4l19.9 2.4M2890.2 159.3s0 16-19.4 14.2c-14-1.3-38.3-5.7-38.3-5.7-2.7-1.1-10.2-3.4-10.1-15.8M2829.4 89.8c.7-3.3 4.4-51.7 7.1-70.9 2.4-17.3 16.1-14.4 16.1-14.4l39.3 4.7s13-.3 12 15.4"/><path d="M2825.7 97s13.5 3.2 11.3 14.8c-1.8 9.9-11.3 11.7-16.1 11.1-9.9-1.2-17-9.1-17-18.2 0-12.5 10-22.7 25.1-20.1"/><path d="M2824 123.5c-3.1-.6-13.7-3.2-16.1 6.2-2.1 8.1 2.9 16.5 14.5 19.1 4.6 1.1 12.4.4 14.3-6.7 3.5-13.3-9.6-17.9-12.7-18.6zM2835.6 169c-5.4 4.5-5.6 14.7 6.1 19.2 6.5 2.5 17.4 3.4 21-1.5 2.1-2.8 5.5-11-5-14.8M2829 93.8c.3-1.4 1.3-11.9 2.5-25M2833 38c-5.7-3.7-17.3-5-21.3 5.3-4.2 10.8 13.8 22.5 18.6 24M3141.1 19.2l18.4 2.2M3170.2 159.3s0 16-19.4 14.2c-14-1.3-38.3-5.7-38.3-5.7-2.7-1.1-10.2-3.4-10.1-15.8M3109.4 89.8c.7-3.3 4.4-51.7 7.1-70.9 2.4-17.3 16.1-14.4 16.1-14.4l39.3 4.7s13-.3 12 15.4"/><path d="M3105.7 97s13.5 3.2 11.3 14.8c-1.8 9.9-11.3 11.7-16.1 11.1-9.9-1.2-17-9.1-17-18.2 0-12.5 10-22.7 25.1-20.1"/><path d="M3104 123.5c-3.1-.6-13.7-3.2-16.1 6.2-2.1 8.1 2.9 16.5 14.5 19.1 4.6 1.1 12.4.4 14.3-6.7 3.5-13.3-9.6-17.9-12.7-18.6zM3115.6 169c-5.4 4.5-5.6 14.7 6.1 19.2 6.5 2.5 17.4 3.4 21-1.5 2.1-2.8 5.5-11-5-14.8M3109 93.8c.3-1.4 1.3-11.9 2.5-25M3113 38c-5.7-3.7-17.3-5-21.3 5.3-4.2 10.8 13.8 22.5 18.6 24M3119.9 123.4l19.9 2.4M2903.5 115l8.4-1.5M2893.6 129c1.1 8.8 4.8 16.9 9.9 19.5"/><path d="M2864.9 177.9c17.6 10.5 47.9 12.6 63.8-1.9 26-23.7 15.4-51.4 12.7-59.9-12.7-34.8-41.5-31.2-54.9-21.9-9.2 6.4-21.9 24.1-11.1 33.8 3.6 3.2 8.6 4.2 13.2 2.6 4.9-1.7 6.9-3.6 9.3-7.8 1.2-2.1 2.2-4.2 3.5-6.3.1-.1.3-.4.6-.8.5-.7 1.2-1.8 1.9-2.9.8-1.3 1.7-2.6 2.4-3.7M3421.1 19.2l18.4 2.2M3450.2 159.3s0 16-19.4 14.2c-14-1.3-38.3-5.7-38.3-5.7-2.7-1.1-10.2-3.4-10.1-15.8M3389.4 89.8c.7-3.3 4.4-51.7 7.1-70.9 2.4-17.3 16.1-14.4 16.1-14.4l39.3 4.7s13-.3 12 15.4"/><path d="M3385.7 97s13.5 3.2 11.3 14.8c-1.8 9.9-11.3 11.7-16.1 11.1-9.9-1.2-17-9.1-17-18.2 0-12.5 10-22.7 25.1-20.1"/><path d="M3384 123.5c-3.1-.6-13.7-3.2-16.1 6.2-2.1 8.1 2.9 16.5 14.5 19.1 4.6 1.1 12.4.4 14.3-6.7 3.5-13.3-9.6-17.9-12.7-18.6zM3395.6 169c-5.4 4.5-5.6 14.7 6.1 19.2 6.5 2.5 17.4 3.4 21-1.5 2.1-2.8 5.5-11-5-14.8M3389 93.8c.3-1.4 1.3-11.9 2.5-25M3393 38c-5.7-3.7-17.3-5-21.3 5.3-4.2 10.8 13.8 22.5 18.6 24"/><path d="M3424.9 177.9c17.6 10.5 47.9 12.6 63.8-1.9 26-23.7 15.4-51.4 12.7-59.9-.8-1.9-5.6-14.8-6.4-16.8-4.1-10.9-11.1-23.4-5.4-35.4 3.7-7.9 19.4-22.1 12.2-31.3-6-7.7-16.3-2.8-22.2 1.6-18 13.6-22 37-15.6 57.6 0 0 3.5 8.5-1.4 11.3-14.8 7.5-10.4 39.9.7 45.4M3701.1 19.2l18.4 2.2M3730.2 159.3s0 16-19.4 14.2c-14-1.3-38.3-5.7-38.3-5.7-2.7-1.1-10.2-3.4-10.1-15.8M3669.4 89.8c.7-3.3 4.4-51.7 7.1-70.9 2.4-17.3 16.1-14.4 16.1-14.4l39.3 4.7s13-.3 12 15.4"/><path d="M3665.7 97s13.5 3.2 11.3 14.8c-1.8 9.9-11.3 11.7-16.1 11.1-9.9-1.2-17-9.1-17-18.2 0-12.5 10-22.7 25.1-20.1"/><path d="M3664 123.5c-3.1-.6-13.7-3.2-16.1 6.2-2.1 8.1 2.9 16.5 14.5 19.1 4.6 1.1 12.4.4 14.3-6.7 3.5-13.3-9.6-17.9-12.7-18.6zM3675.6 169c-5.4 4.5-5.6 14.7 6.1 19.2 6.5 2.5 17.4 3.4 21-1.5 2.1-2.8 5.5-11-5-14.8M3669 93.8c.3-1.4 1.3-11.9 2.5-25M3673 38c-5.7-3.7-17.3-5-21.3 5.3-4.2 10.8 13.8 22.5 18.6 24"/><path d="M3704.9 177.9c17.6 10.5 47.9 12.6 63.8-1.9 26-23.7 15.7-51.1 12.7-59.9-5-14.7-27.7-33.5-19.5-53 3-7.1 17.1-24.8 5.2-31.5-12.1-6.8-24 8.9-28.3 18.1-8.6 18.1-6.5 35.7 3.6 52.3-14.8 7.5-10.4 39.9.7 45.4M3981.1 19.2l18.4 2.2M4010.2 159.3s0 16-19.4 14.2c-14-1.3-38.3-5.7-38.3-5.7-2.7-1.1-10.2-3.4-10.1-15.8M3949.4 89.8c.7-3.3 4.4-51.7 7.1-70.9 2.4-17.3 16.1-14.4 16.1-14.4l39.3 4.7s13-.3 12 15.4"/><path d="M3945.7 97s13.5 3.2 11.3 14.8c-1.8 9.9-11.3 11.7-16.1 11.1-9.9-1.2-17-9.1-17-18.2 0-12.5 10-22.7 25.1-20.1"/><path d="M3944 123.5c-3.1-.6-13.7-3.2-16.1 6.2-2.1 8.1 2.9 16.5 14.5 19.1 4.6 1.1 12.4.4 14.3-6.7 3.5-13.3-9.6-17.9-12.7-18.6zM3955.6 169c-5.4 4.5-5.6 14.7 6.1 19.2 6.5 2.5 17.4 3.4 21-1.5 2.1-2.8 5.5-11-5-14.8M3949 93.8c.3-1.4 1.3-11.9 2.5-25M3953 38c-5.7-3.7-17.3-5-21.3 5.3-4.2 10.8 13.8 22.5 18.6 24M3958.5 146.4l36 4.2"/><path d="M3984.9 177.9c17.6 10.5 47.9 12.6 63.8-1.9 26-23.7 15.7-51.1 12.7-59.9-5-14.7-27.7-33.5-19.5-53 3-7.1 17.1-24.8 5.2-31.5-12.1-6.8-24 8.9-28.3 18.1-8.6 18.1-6.5 35.7 3.6 52.3-14.8 7.5-10.4 39.9.7 45.4M4261.1 19.2l18.4 2.2M4290.2 159.3s0 16-19.4 14.2c-14-1.3-38.3-5.7-38.3-5.7-2.7-1.1-10.2-3.4-10.1-15.8M4229.4 89.8c.7-3.3 4.4-51.7 7.1-70.9 2.4-17.3 16.1-14.4 16.1-14.4l39.3 4.7s13-.3 12 15.4"/><path d="M4225.7 97s13.5 3.2 11.3 14.8c-1.8 9.9-11.3 11.7-16.1 11.1-9.9-1.2-17-9.1-17-18.2 0-12.5 10-22.7 25.1-20.1"/><path d="M4224 123.5c-3.1-.6-13.7-3.2-16.1 6.2-2.1 8.1 2.9 16.5 14.5 19.1 4.6 1.1 12.4.4 14.3-6.7 3.5-13.3-9.6-17.9-12.7-18.6zM4235.6 169c-5.4 4.5-5.6 14.7 6.1 19.2 6.5 2.5 17.4 3.4 21-1.5 2.1-2.8 5.5-11-5-14.8M4229 93.8c.3-1.4 1.3-11.9 2.5-25M4233 38c-5.7-3.7-17.3-5-21.3 5.3-4.2 10.8 13.8 22.5 18.6 24M4243.5 89.4l36 4.2M4241 117.7l27.7 3.3M4239.9 132.4l19.9 2.4M4264.7 106.9l14.5 1.7M4242.5 103.9l10.2 1.2"/><path d="M4264.9 177.9c17.6 10.5 47.9 12.6 63.8-1.9 26-23.7 15.7-51.1 12.7-59.9-5-14.7-27.7-33.5-19.5-53 3-7.1 17.1-24.8 5.2-31.5-12.1-6.8-24 8.9-28.3 18.1-8.6 18.1-6.5 35.7 3.6 52.3-14.8 7.5-10.4 39.9.7 45.4M3185 116.8l6.9-1.7M3174.6 134.5c1.7 6.5 4.8 12 8.8 14"/><path d="M3144.9 177.9c17.6 10.5 47.9 12.6 63.8-1.9 26-23.7 15.4-51.4 12.7-59.9-13.1-34.8-39.5-30.5-52.7-20.7-9 6.7-20 24.5-9.2 34.2 3.6 3.2 8.6 4.2 13.2 2.6 4.9-1.7 6.2-5.4 8.6-9.6 1.2-2.1 2.2-4.2 3.5-6.3.1-.1.3-.4.6-.8.5-.7 1.2-1.8 1.9-2.9.8-1.3 1.7-2.6 2.4-3.7M7933.4 128.7c-.1 1.2-3.2 30.6-3.2 30.6M7943.9 24.5c-.3 4.7-2.7 28.5-5.4 54.9M8213.3 130.2c-1.8 17-3 29.1-3 29.1M8223.9 24.5c-.3 5.2-3.2 33.9-6.3 63.5M8492.9 133.5c-1.6 15.2-2.7 25.8-2.7 25.8M8503.9 24.5c-.3 5.3-3.3 35.1-6.5 65.3M8773.3 129.9c-1.8 17.2-3.1 29.4-3.1 29.4M8783.9 24.5c-.4 6.5-4.9 50-8.6 85.9M9053.4 130.2c-1.6 15.6-3.2 29.2-3.2 29.2M9057.1 93.5c0 .2-.1.5-.1.7-.4 4.2-1.1 10.4-1.5 14.6M9063.9 24.5c-.1 2.3-.8 9.4-1.8 19.1M9333.4 129.8c-1.6 15.5-3.2 29.5-3.2 29.5M9337.1 93.2c-.5 4.8-1.2 11.5-1.7 16.2M9343.9 24.5c-.1 2.2-.8 8.9-1.7 18.2M9613.2 130c-1.7 16.8-3 29.3-3 29.3M9617.2 92.7c-.5 4.8-1.2 12.5-1.7 17.1M9623.9 24.5c-.1 2.2-.7 8.5-1.6 17.3"/><g><path d="M7901.1 19.2l18.4 2.2M7884.7 69.8l36.1 4.3M7882.3 98.1l27.7 3.3M7881.2 112.8l19.9 2.4M7906 87.3l11 1.4M7883.7 84.3l10.3 1.3M7930.2 159.3s0 16-19.4 14.2c-14-1.3-38.3-5.7-38.3-5.7-2.7-1.1-10.2-3.4-10.1-15.8M7869.4 89.8c.7-3.3 4.4-51.7 7.1-70.9 2.4-17.3 16.1-14.4 16.1-14.4l39.3 4.7s13-.3 12 15.4"/><path d="M7865.7 97s13.5 3.2 11.3 14.8c-1.8 9.9-11.3 11.7-16.1 11.1-9.9-1.2-17-9.1-17-18.2 0-12.5 10-22.7 25.1-20.1"/><path d="M7864 123.5c-3.1-.6-13.7-3.2-16.1 6.2-2.1 8.1 2.9 16.5 14.5 19.1 4.6 1.1 12.4.4 14.3-6.7 3.5-13.3-9.6-17.9-12.7-18.6zM7875.6 169c-5.4 4.5-5.6 14.7 6.1 19.2 6.5 2.5 17.4 3.4 21-1.5 2.1-2.8 5.5-11-5-14.8M7869 93.8c.3-1.4 1.3-11.9 2.5-25M7873 38c-5.7-3.7-17.3-5-21.3 5.3-4.2 10.8 13.8 22.5 18.6 24"/></g><path d="M7940.9 105.2c1.6 4.7 5.5 5.1 8.3 4.7M7942.7 103c-14.8 7.5-10.4 39.9.7 45.4"/><path d="M7904.9 177.9c17.6 10.5 47.9 12.6 63.8-1.9 26-23.7 15.4-51.4 12.7-59.9-10.3-31.1-30.1-42-52.3-33.2-10 4-25.3 16.3-16 28.4 6 7.8 17.6 1.3 22.6-2.8 1.8-1.5 7.7-6.5 9.7-8.7"/><g><path d="M8181.1 19.2l18.4 2.2M8163.5 78.4l36 4.2M8161 106.7l27.7 3.3M8159.9 121.4l19.9 2.4M8184.7 95.9l14.5 1.7M8162.5 92.9l10.2 1.2M8210.2 159.3s0 16-19.4 14.2c-14-1.3-38.3-5.7-38.3-5.7-2.7-1.1-10.2-3.4-10.1-15.8M8149.4 89.8c.7-3.3 4.4-51.7 7.1-70.9 2.4-17.3 16.1-14.4 16.1-14.4l39.3 4.7s13-.3 12 15.4"/><path d="M8145.7 97s13.5 3.2 11.3 14.8c-1.8 9.9-11.3 11.7-16.1 11.1-9.9-1.2-17-9.1-17-18.2 0-12.5 10-22.7 25.1-20.1"/><path d="M8144 123.5c-3.1-.6-13.7-3.2-16.1 6.2-2.1 8.1 2.9 16.5 14.5 19.1 4.7 1.1 12.4.4 14.3-6.7 3.5-13.3-9.6-17.9-12.7-18.6zM8155.6 169c-5.4 4.5-5.6 14.7 6.1 19.2 6.5 2.5 17.4 3.4 21-1.5 2.1-2.8 5.5-11-5-14.8M8149 93.8c.3-1.4 1.3-11.9 2.5-25M8153 38c-5.7-3.7-17.3-5-21.3 5.3-4.2 10.8 13.8 22.5 18.6 24"/></g><g><path d="M8461.1 19.2l18.4 2.2M8490.2 159.3s0 16-19.4 14.2c-14-1.3-38.3-5.7-38.3-5.7-2.7-1.1-10.2-3.4-10.1-15.8M8429.4 89.8c.7-3.3 4.4-51.7 7.1-70.9 2.4-17.3 16.1-14.4 16.1-14.4l39.3 4.7s13-.3 12 15.4"/><path d="M8425.7 97s13.5 3.2 11.3 14.8c-1.8 9.9-11.3 11.7-16.1 11.1-9.9-1.2-17-9.1-17-18.2 0-12.5 10-22.7 25.1-20.1"/><path d="M8424 123.5c-3.1-.6-13.7-3.2-16.1 6.2-2.1 8.1 2.9 16.5 14.5 19.1 4.7 1.1 12.4.4 14.3-6.7 3.5-13.3-9.6-17.9-12.7-18.6zM8435.6 169c-5.4 4.5-5.6 14.7 6.1 19.2 6.5 2.5 17.4 3.4 21-1.5 2.1-2.8 5.5-11-5-14.8M8429 93.8c.3-1.4 1.3-11.9 2.5-25M8433 38c-5.7-3.7-17.3-5-21.3 5.3-4.2 10.8 13.8 22.5 18.6 24M8443.5 80.4l36 4.2M8441 108.7l27.7 3.3M8439.9 123.4l19.9 2.4M8464.7 97.9l14.5 1.7M8442.5 94.9l10.2 1.2"/></g><path d="M8223.5 115l8.4-1.5M8213.6 129c1.1 8.8 4.8 16.9 9.9 19.5"/><path d="M8184.9 177.9c17.6 10.5 47.9 12.6 63.8-1.9 26-23.7 15.4-51.4 12.7-59.9-12.7-34.8-41.5-31.2-54.9-21.9-9.2 6.4-21.9 24.1-11.1 33.8 3.6 3.2 8.6 4.2 13.2 2.6 4.9-1.7 6.9-3.6 9.3-7.8 1.2-2.1 2.2-4.2 3.5-6.3.1-.1.3-.4.6-.8.5-.7 1.2-1.8 1.9-2.9.8-1.3 1.7-2.6 2.4-3.7"/><g><path d="M8741.1 19.2l18.4 2.2M8770.2 159.3s0 16-19.4 14.2c-14-1.3-38.3-5.7-38.3-5.7-2.7-1.1-10.2-3.4-10.1-15.8M8709.4 89.8c.7-3.3 4.4-51.7 7.1-70.9 2.4-17.3 16.1-14.4 16.1-14.4l39.3 4.7s13-.3 12 15.4"/><path d="M8705.7 97s13.5 3.2 11.3 14.8c-1.8 9.9-11.3 11.7-16.1 11.1-9.9-1.2-17-9.1-17-18.2 0-12.5 10-22.7 25.1-20.1"/><path d="M8704 123.5c-3.1-.6-13.7-3.2-16.1 6.2-2.1 8.1 2.9 16.5 14.5 19.1 4.7 1.1 12.4.4 14.3-6.7 3.5-13.3-9.6-17.9-12.7-18.6zM8715.6 169c-5.4 4.5-5.6 14.7 6.1 19.2 6.5 2.5 17.4 3.4 21-1.5 2.1-2.8 5.5-11-5-14.8M8709 93.8c.3-1.4 1.3-11.9 2.5-25M8713 38c-5.7-3.7-17.3-5-21.3 5.3-4.2 10.8 13.8 22.5 18.6 24M8728.5 30.2l27.7 3.3M8727.4 44.9l19.9 2.4"/></g><path d="M8744.9 177.9c17.6 10.5 47.9 12.6 63.8-1.9 26-23.7 15.4-51.4 12.7-59.9-.8-1.9-5.6-14.8-6.4-16.8-4.1-10.9-11.1-23.4-5.4-35.4 3.7-7.9 19.4-22.1 12.3-31.3-6-7.7-16.3-2.8-22.2 1.6-18 13.6-22 37-15.6 57.6 0 0 3.5 8.5-1.4 11.3-14.8 7.5-10.4 39.9.7 45.4"/><g><path d="M9021.1 19.2l18.4 2.2M9050.2 159.3s0 16-19.4 14.2c-14-1.3-38.3-5.7-38.3-5.7-2.7-1.1-10.2-3.4-10.1-15.8M8989.4 89.8c.7-3.3 4.4-51.7 7.1-70.9 2.4-17.3 16.1-14.4 16.1-14.4l39.3 4.7s13-.3 12 15.4"/><path d="M8985.7 97s13.5 3.2 11.3 14.8c-1.8 9.9-11.3 11.7-16.1 11.1-9.9-1.2-17-9.1-17-18.2 0-12.5 10-22.7 25.1-20.1"/><path d="M8984 123.5c-3.1-.6-13.7-3.2-16.1 6.2-2.1 8.1 2.9 16.5 14.5 19.1 4.7 1.1 12.4.4 14.3-6.7 3.5-13.3-9.6-17.9-12.7-18.6zM8995.6 169c-5.4 4.5-5.6 14.7 6.1 19.2 6.5 2.5 17.4 3.4 21-1.5 2.1-2.8 5.5-11-5-14.8M8989 93.8c.3-1.4 1.3-11.9 2.5-25M8993 38c-5.7-3.7-17.3-5-21.3 5.3-4.2 10.8 13.8 22.5 18.6 24"/></g><path d="M9024.9 177.9c17.6 10.5 47.9 12.6 63.8-1.9 26-23.7 15.7-51.1 12.7-59.9-5-14.7-27.7-33.5-19.5-53 3-7.1 17.1-24.8 5.2-31.5-12.1-6.8-24 8.9-28.3 18.1-8.6 18.1-6.5 35.7 3.6 52.3-14.8 7.5-10.4 39.9.7 45.4"/><g><path d="M9301.1 19.2l18.4 2.2M9330.2 159.3s0 16-19.4 14.2c-14-1.3-38.3-5.7-38.3-5.7-2.7-1.1-10.2-3.4-10.1-15.8M9269.4 89.8c.7-3.3 4.4-51.7 7.1-70.9 2.4-17.3 16.1-14.4 16.1-14.4l39.3 4.7s13-.3 12 15.4"/><path d="M9265.7 97s13.5 3.2 11.3 14.8c-1.8 9.9-11.3 11.7-16.1 11.1-9.9-1.2-17-9.1-17-18.2 0-12.5 10-22.7 25.1-20.1"/><path d="M9264 123.5c-3.1-.6-13.7-3.2-16.1 6.2-2.1 8.1 2.9 16.5 14.5 19.1 4.7 1.1 12.4.4 14.3-6.7 3.5-13.3-9.6-17.9-12.7-18.6zM9275.6 169c-5.4 4.5-5.6 14.7 6.1 19.2 6.5 2.5 17.4 3.4 21-1.5 2.1-2.8 5.5-11-5-14.8M9269 93.8c.3-1.4 1.3-11.9 2.5-25M9273 38c-5.7-3.7-17.3-5-21.3 5.3-4.2 10.8 13.8 22.5 18.6 24M9278.5 146.4l36 4.2"/></g><path d="M9304.9 177.9c17.6 10.5 47.9 12.6 63.8-1.9 26-23.7 15.7-51.1 12.7-59.9-5-14.7-27.7-33.5-19.5-53 3-7.1 17.1-24.8 5.2-31.5-12.1-6.8-24 8.9-28.3 18.1-8.6 18.1-6.5 35.7 3.6 52.3-14.8 7.5-10.4 39.9.7 45.4"/><g><path d="M9581.1 19.2l18.4 2.2M9610.2 159.3s0 16-19.4 14.2c-14-1.3-38.3-5.7-38.3-5.7-2.7-1.1-10.2-3.4-10.1-15.8M9549.4 89.8c.7-3.3 4.4-51.7 7.1-70.9 2.4-17.3 16.1-14.4 16.1-14.4l39.3 4.7s13-.3 12 15.4"/><path d="M9545.7 97s13.5 3.2 11.3 14.8c-1.8 9.9-11.3 11.7-16.1 11.1-9.9-1.2-17-9.1-17-18.2 0-12.5 10-22.7 25.1-20.1"/><path d="M9544 123.5c-3.1-.6-13.7-3.2-16.1 6.2-2.1 8.1 2.9 16.5 14.5 19.1 4.7 1.1 12.4.4 14.3-6.7 3.5-13.3-9.6-17.9-12.7-18.6zM9555.6 169c-5.4 4.5-5.6 14.7 6.1 19.2 6.5 2.5 17.4 3.4 21-1.5 2.1-2.8 5.5-11-5-14.8M9549 93.8c.3-1.4 1.3-11.9 2.5-25M9553 38c-5.7-3.7-17.3-5-21.3 5.3-4.2 10.8 13.8 22.5 18.6 24M9563.5 89.4l36 4.2M9561 117.7l27.7 3.3M9559.9 132.4l19.9 2.4M9562.5 103.9l36.7 4.7"/></g><path d="M9584.9 177.9c17.6 10.5 47.9 12.6 63.8-1.9 26-23.7 15.7-51.1 12.7-59.9-5-14.7-27.7-33.5-19.5-53 3-7.1 17.1-24.8 5.2-31.5-12.1-6.8-24 8.9-28.3 18.1-8.6 18.1-6.5 35.7 3.6 52.3-14.8 7.5-10.4 39.9.7 45.4M8505 116.8l6.9-1.7M8494.6 134.5c1.7 6.5 4.8 12 8.8 14"/><path d="M8464.9 177.9c17.6 10.5 47.9 12.6 63.8-1.9 26-23.7 15.4-51.4 12.7-59.9-13.1-34.8-39.5-30.5-52.7-20.7-9 6.7-20 24.5-9.2 34.2 3.6 3.2 8.6 4.2 13.2 2.6 4.9-1.7 6.2-5.4 8.6-9.6 1.2-2.1 2.2-4.2 3.5-6.3.1-.1.3-.4.6-.8.5-.7 1.2-1.8 1.9-2.9.8-1.3 1.7-2.6 2.4-3.7M2301.1 19.2l18.4 2.2M2330.2 159.3s0 16-19.4 14.2c-14-1.3-38.3-5.7-38.3-5.7-2.7-1.1-10.2-3.4-10.1-15.8M2269.4 89.8c.7-3.3 4.4-51.7 7.1-70.9 2.4-17.3 16.1-14.4 16.1-14.4l39.3 4.7s13-.3 12 15.4"/><path d="M2265.7 97s13.5 3.2 11.3 14.8c-1.8 9.9-11.3 11.7-16.1 11.1-9.9-1.2-17-9.1-17-18.2 0-12.5 10-22.7 25.1-20.1"/><path d="M2264 123.5c-3.1-.6-13.7-3.2-16.1 6.2-2.1 8.1 2.9 16.5 14.5 19.1 4.6 1.1 12.4.4 14.3-6.7 3.5-13.3-9.6-17.9-12.7-18.6zM2275.6 169c-5.4 4.5-5.6 14.7 6.1 19.2 6.5 2.5 17.4 3.4 21-1.5 2.1-2.8 5.5-11-5-14.8M2269 93.8c.3-1.4 1.3-11.9 2.5-25M2273 38c-5.7-3.7-17.3-5-21.3 5.3-4.2 10.8 13.8 22.5 18.6 24M2317.5 137l-38.7-5 4.7-42.6 38.4 4.8zM3447.7 33.2l-1.6 16.6-38.7-5 1.8-16.4M2598.8 117.4l-38.8-5 4.7-42.6 38.5 4.9-1 11.1M2872 125.3l-33.2-4.3 4.7-42.6 38.4 4.8-1.3 15.4M3156.1 127.8l-37.3-4.8 4.7-42.6 38.4 4.8-1.5 18.2M1993.9 168.3l2.6-22.4 38.4 4.9-2.2 22.5"/><path d="M2304.9 177.9c17.6 10.5 47.9 12.6 63.8-1.9 26-23.7 15.7-51.1 12.7-59.9-5-14.7-27.7-33.5-19.5-53 3-7.1 17.1-24.8 5.2-31.5-12.1-6.8-24 8.9-28.3 18.1-8.6 18.1-6.5 35.7 3.6 52.3-14.8 7.5-10.4 39.9.7 45.4M93.5 128.9c-1.6 15.8-3.3 30.2-3.3 30.2M97.2 92c-.6 6-1.2 11.9-1.8 17.7M103.9 24.5c-.1 2.2-.7 8.6-1.6 17.5"/><g><path d="M4509.4 89.8c.7-3.3 4.4-51.7 7.1-70.9 2.4-17.3 16.1-14.4 16.1-14.4l39.3 4.7s13-.3 12 15.4M4541.1 19.2l18.4 2.2M4524.7 69.8l36.1 4.3M4522.3 98.1l27.7 3.3M4521.2 112.8l19.9 2.4M4546 87.3l14.5 1.8M4523.7 84.3l10.3 1.3M4570.2 159.3s0 16-19.4 14.2c-14-1.3-38.3-5.7-38.3-5.7-2.7-1.1-10.2-3.4-10.1-15.8"/><path d="M4505.7 97s13.5 3.2 11.3 14.8c-1.8 9.9-11.3 11.7-16.1 11.1-9.9-1.2-17-9.1-17-18.2 0-12.5 10-22.7 25.1-20.1"/><path d="M4504 123.5c-3.1-.6-13.7-3.2-16.1 6.2-2.1 8.1 2.9 16.5 14.5 19.1 4.6 1.1 12.4.4 14.3-6.7 3.5-13.3-9.6-17.9-12.7-18.6zM4515.6 169c-5.4 4.5-5.6 14.7 6.1 19.2 6.5 2.5 17.4 3.4 21-1.5 2.1-2.8 5.5-11-5-14.8M4509 93.8c.3-1.4 1.3-11.9 2.5-25M4513 38c-5.7-3.7-17.3-5-21.3 5.3-4.2 10.8 13.8 22.5 18.6 24"/></g><path d="M4544.9 177.9c17.6 10.5 47.9 12.6 63.8-1.9 26-23.7 15.7-51.1 12.7-59.9-5-14.7-27.7-33.5-19.5-53 3-7.1 17.1-24.8 5.2-31.5-12.1-6.8-24 8.9-28.3 18.1-8.6 18.1-6.5 35.7 3.6 52.3-14.8 7.5-10.4 39.9.7 45.4M4573.2 129.4c-1.6 15.8-3 29.9-3 29.9M4577.2 92c-.6 6-1.2 11.9-1.8 17.7M4583.9 24.5c-.1 2.2-.7 8.6-1.6 17.5"/><g><path d="M4789.4 89.8c.7-3.3 4.4-51.7 7.1-70.9 2.4-17.3 16.1-14.4 16.1-14.4l39.3 4.7s13-.3 12 15.4M4821.1 19.2l18.4 2.2M4804.7 69.8l36.1 4.3M4802.3 98.1l27.7 3.3M4801.2 112.8l19.9 2.4M4826 87.3l14.5 1.8M4803.7 84.3l10.3 1.3M4850.2 159.3s0 16-19.4 14.2c-14-1.3-38.3-5.7-38.3-5.7-2.7-1.1-10.2-3.4-10.1-15.8"/><path d="M4785.7 97s13.5 3.2 11.3 14.8c-1.8 9.9-11.3 11.7-16.1 11.1-9.9-1.2-17-9.1-17-18.2 0-12.5 10-22.7 25.1-20.1"/><path d="M4784 123.5c-3.1-.6-13.7-3.2-16.1 6.2-2.1 8.1 2.9 16.5 14.5 19.1 4.6 1.1 12.4.4 14.3-6.7 3.5-13.3-9.6-17.9-12.7-18.6zM4795.6 169c-5.4 4.5-5.6 14.7 6.1 19.2 6.5 2.5 17.4 3.4 21-1.5 2.1-2.8 5.5-11-5-14.8M4789 93.8c.3-1.4 1.3-11.9 2.5-25M4793 38c-5.7-3.7-17.3-5-21.3 5.3-4.2 10.8 13.8 22.5 18.6 24"/></g><path d="M4824.9 177.9c17.6 10.5 47.9 12.6 63.8-1.9 26-23.7 15.7-51.1 12.7-59.9-5-14.7-27.7-33.5-19.5-53 3-7.1 17.1-24.8 5.2-31.5-12.1-6.8-24 8.9-28.3 18.1-8.6 18.1-6.5 35.7 3.6 52.3-14.8 7.5-10.4 39.9.7 45.4M4853.2 130.1c-1.6 15.8-3 29.2-3 29.2M4857.2 92c-.6 6-1.2 11.9-1.8 17.7M4863.9 24.5c-.1 2.2-.7 8.6-1.6 17.5"/><g><path d="M5069.4 89.8c.7-3.3 4.4-51.7 7.1-70.9 2.4-17.3 16.1-14.4 16.1-14.4l39.3 4.7s13-.3 12 15.4M5101.1 19.2l18.4 2.2M5084.7 69.8l36.1 4.3M5082.3 98.1l27.7 3.3M5081.2 112.8l19.9 2.4M5106 87.3l14.5 1.8M5083.7 84.3l10.3 1.3M5130.2 159.3s0 16-19.4 14.2c-14-1.3-38.3-5.7-38.3-5.7-2.7-1.1-10.2-3.4-10.1-15.8"/><path d="M5065.7 97s13.5 3.2 11.3 14.8c-1.8 9.9-11.3 11.7-16.1 11.1-9.9-1.2-17-9.1-17-18.2 0-12.5 10-22.7 25.1-20.1"/><path d="M5064 123.5c-3.1-.6-13.7-3.2-16.1 6.2-2.1 8.1 2.9 16.5 14.5 19.1 4.6 1.1 12.4.4 14.3-6.7 3.5-13.3-9.6-17.9-12.7-18.6zM5075.6 169c-5.4 4.5-5.6 14.7 6.1 19.2 6.5 2.5 17.4 3.4 21-1.5 2.1-2.8 5.5-11-5-14.8M5069 93.8c.3-1.4 1.3-11.9 2.5-25M5073 38c-5.7-3.7-17.3-5-21.3 5.3-4.2 10.8 13.8 22.5 18.6 24"/></g><path d="M5104.9 177.9c17.6 10.5 47.9 12.6 63.8-1.9 26-23.7 15.7-51.1 12.7-59.9-5-14.7-27.7-33.5-19.5-53 3-7.1 17.1-24.8 5.2-31.5-12.1-6.8-24 8.9-28.3 18.1-8.6 18.1-6.5 35.7 3.6 52.3-14.8 7.5-10.4 39.9.7 45.4M5133.4 129.1c-1.6 15.8-3.2 30.2-3.2 30.2M5137.2 92c-.6 6-1.2 11.9-1.8 17.7M5143.9 24.5c-.1 2.2-.7 8.6-1.6 17.5"/><g><path d="M5349.4 89.8c.7-3.3 4.4-51.7 7.1-70.9 2.4-17.3 16.1-14.4 16.1-14.4l39.3 4.7s13-.3 12 15.4M5381.1 19.2l18.4 2.2M5364.7 69.8l36.1 4.3M5362.3 98.1l27.7 3.3M5361.2 112.8l19.9 2.4M5386 87.3l14.5 1.8M5363.7 84.3l10.3 1.3M5410.2 159.3s0 16-19.4 14.2c-14-1.3-38.3-5.7-38.3-5.7-2.7-1.1-10.2-3.4-10.1-15.8"/><path d="M5345.7 97s13.5 3.2 11.3 14.8c-1.8 9.9-11.3 11.7-16.1 11.1-9.9-1.2-17-9.1-17-18.2 0-12.5 10-22.7 25.1-20.1"/><path d="M5344 123.5c-3.1-.6-13.7-3.2-16.1 6.2-2.1 8.1 2.9 16.5 14.5 19.1 4.6 1.1 12.4.4 14.3-6.7 3.5-13.3-9.6-17.9-12.7-18.6zM5355.6 169c-5.4 4.5-5.6 14.7 6.1 19.2 6.5 2.5 17.4 3.4 21-1.5 2.1-2.8 5.5-11-5-14.8M5349 93.8c.3-1.4 1.3-11.9 2.5-25M5353 38c-5.7-3.7-17.3-5-21.3 5.3-4.2 10.8 13.8 22.5 18.6 24"/></g><path d="M5384.9 177.9c17.6 10.5 47.9 12.6 63.8-1.9 26-23.7 15.7-51.1 12.7-59.9-5-14.7-27.7-33.5-19.5-53 3-7.1 17.1-24.8 5.2-31.5-12.1-6.8-24 8.9-28.3 18.1-8.6 18.1-6.5 35.7 3.6 52.3-14.8 7.5-10.4 39.9.7 45.4M5413.5 129.6c-1.6 15.8-3.3 29.7-3.3 29.7M5417.2 92c-.6 6-1.2 11.9-1.8 17.7M5423.9 24.5c-.1 2.2-.7 8.6-1.6 17.5"/><g><path d="M5629.4 89.8c.7-3.3 4.4-51.7 7.1-70.9 2.4-17.3 16.1-14.4 16.1-14.4l39.3 4.7s13-.3 12 15.4M5661.1 19.2l18.4 2.2M5644.7 69.8l36.1 4.3M5642.3 98.1l27.7 3.3M5641.2 112.8l19.9 2.4M5666 87.3l14.5 1.8M5643.7 84.3l10.3 1.3M5690.2 159.3s0 16-19.4 14.2c-14-1.3-38.3-5.7-38.3-5.7-2.7-1.1-10.2-3.4-10.1-15.8"/><path d="M5625.7 97s13.5 3.2 11.3 14.8c-1.8 9.9-11.3 11.7-16.1 11.1-9.9-1.2-17-9.1-17-18.2 0-12.5 10-22.7 25.1-20.1"/><path d="M5624 123.5c-3.1-.6-13.7-3.2-16.1 6.2-2.1 8.1 2.9 16.5 14.5 19.1 4.6 1.1 12.4.4 14.3-6.7 3.5-13.3-9.6-17.9-12.7-18.6zM5635.6 169c-5.4 4.5-5.6 14.7 6.1 19.2 6.5 2.5 17.4 3.4 21-1.5 2.1-2.8 5.5-11-5-14.8M5629 93.8c.3-1.4 1.3-11.9 2.5-25M5633 38c-5.7-3.7-17.3-5-21.3 5.3-4.2 10.8 13.8 22.5 18.6 24"/></g><path d="M5664.9 177.9c17.6 10.5 47.9 12.6 63.8-1.9 26-23.7 15.7-51.1 12.7-59.9-5-14.7-27.7-33.5-19.5-53 3-7.1 17.1-24.8 5.2-31.5-12.1-6.8-24 8.9-28.3 18.1-8.6 18.1-6.5 35.7 3.6 52.3-14.8 7.5-10.4 39.9.7 45.4M5693.2 129.9c-1.6 15.8-3 29.4-3 29.4M5697.2 92c-.6 6-1.2 11.9-1.8 17.7M5703.9 24.5c-.1 2.2-.7 8.6-1.6 17.5"/><g><path d="M5909.4 89.8c.7-3.3 4.4-51.7 7.1-70.9 2.4-17.3 16.1-14.4 16.1-14.4l39.3 4.7s13-.3 12 15.4M5941.1 19.2l18.4 2.2M5924.7 69.8l36.1 4.3M5922.3 98.1l27.7 3.3M5921.2 112.8l19.9 2.4M5946 87.3l14.5 1.8M5923.7 84.3l10.3 1.3M5970.2 159.3s0 16-19.4 14.2c-14-1.3-38.3-5.7-38.3-5.7-2.7-1.1-10.2-3.4-10.1-15.8"/><path d="M5905.7 97s13.5 3.2 11.3 14.8c-1.8 9.9-11.3 11.7-16.1 11.1-9.9-1.2-17-9.1-17-18.2 0-12.5 10-22.7 25.1-20.1"/><path d="M5904 123.5c-3.1-.6-13.7-3.2-16.1 6.2-2.1 8.1 2.9 16.5 14.5 19.1 4.6 1.1 12.4.4 14.3-6.7 3.5-13.3-9.6-17.9-12.7-18.6zM5915.6 169c-5.4 4.5-5.6 14.7 6.1 19.2 6.5 2.5 17.4 3.4 21-1.5 2.1-2.8 5.5-11-5-14.8M5909 93.8c.3-1.4 1.3-11.9 2.5-25M5913 38c-5.7-3.7-17.3-5-21.3 5.3-4.2 10.8 13.8 22.5 18.6 24"/></g><path d="M5944.9 177.9c17.6 10.5 47.9 12.6 63.8-1.9 26-23.7 15.7-51.1 12.7-59.9-5-14.7-27.7-33.5-19.5-53 3-7.1 17.1-24.8 5.2-31.5-12.1-6.8-24 8.9-28.3 18.1-8.6 18.1-6.5 35.7 3.6 52.3-14.8 7.5-10.4 39.9.7 45.4M5973.1 129.9c-1.6 15.8-2.9 29.4-2.9 29.4M5977.2 92c-.6 6-1.2 11.9-1.8 17.7M5983.9 24.5c-.1 2.2-.7 8.6-1.6 17.5"/><g><path d="M6189.4 89.8c.7-3.3 4.4-51.7 7.1-70.9 2.4-17.3 16.1-14.4 16.1-14.4l39.3 4.7s13-.3 12 15.4M6221.1 19.2l18.4 2.2M6204.7 69.8l36.1 4.3M6202.3 98.1l27.7 3.3M6201.2 112.8l19.9 2.4M6226 87.3l14.5 1.8M6203.7 84.3l10.3 1.3M6250.2 159.3s0 16-19.4 14.2c-14-1.3-38.3-5.7-38.3-5.7-2.7-1.1-10.2-3.4-10.1-15.8"/><path d="M6185.7 97s13.5 3.2 11.3 14.8c-1.8 9.9-11.3 11.7-16.1 11.1-9.9-1.2-17-9.1-17-18.2 0-12.5 10-22.7 25.1-20.1"/><path d="M6184 123.5c-3.1-.6-13.7-3.2-16.1 6.2-2.1 8.1 2.9 16.5 14.5 19.1 4.6 1.1 12.4.4 14.3-6.7 3.5-13.3-9.6-17.9-12.7-18.6zM6195.6 169c-5.4 4.5-5.6 14.7 6.1 19.2 6.5 2.5 17.4 3.4 21-1.5 2.1-2.8 5.5-11-5-14.8M6189 93.8c.3-1.4 1.3-11.9 2.5-25M6193 38c-5.7-3.7-17.3-5-21.3 5.3-4.2 10.8 13.8 22.5 18.6 24"/></g><path d="M6224.9 177.9c17.6 10.5 47.9 12.6 63.8-1.9 26-23.7 15.7-51.1 12.7-59.9-5-14.7-27.7-33.5-19.5-53 3-7.1 17.1-24.8 5.2-31.5-12.1-6.8-24 8.9-28.3 18.1-8.6 18.1-6.5 35.7 3.6 52.3-14.8 7.5-10.4 39.9.7 45.4M6253.2 130.2c-1.6 15.8-3 29.1-3 29.1M6257.2 92c-.6 6-1.2 11.9-1.8 17.7M6263.9 24.5c-.1 2.2-.7 8.6-1.6 17.5"/><g><path d="M6469.4 89.8c.7-3.3 4.4-51.7 7.1-70.9 2.4-17.3 16.1-14.4 16.1-14.4l39.3 4.7s13-.3 12 15.4M6501.1 19.2l18.4 2.2M6484.7 69.8l36.1 4.3M6482.3 98.1l27.7 3.3M6481.2 112.8l19.9 2.4M6506 87.3l14.5 1.8M6483.7 84.3l10.3 1.3M6530.2 159.3s0 16-19.4 14.2c-14-1.3-38.3-5.7-38.3-5.7-2.7-1.1-10.2-3.4-10.1-15.8"/><path d="M6465.7 97s13.5 3.2 11.3 14.8c-1.8 9.9-11.3 11.7-16.1 11.1-9.9-1.2-17-9.1-17-18.2 0-12.5 10-22.7 25.1-20.1"/><path d="M6464 123.5c-3.1-.6-13.7-3.2-16.1 6.2-2.1 8.1 2.9 16.5 14.5 19.1 4.6 1.1 12.4.4 14.3-6.7 3.5-13.3-9.6-17.9-12.7-18.6zM6475.6 169c-5.4 4.5-5.6 14.7 6.1 19.2 6.5 2.5 17.4 3.4 21-1.5 2.1-2.8 5.5-11-5-14.8M6469 93.8c.3-1.4 1.3-11.9 2.5-25M6473 38c-5.7-3.7-17.3-5-21.3 5.3-4.2 10.8 13.8 22.5 18.6 24"/></g><path d="M6504.9 177.9c17.6 10.5 47.9 12.6 63.8-1.9 26-23.7 15.7-51.1 12.7-59.9-5-14.7-27.7-33.5-19.5-53 3-7.1 17.1-24.8 5.2-31.5-12.1-6.8-24 8.9-28.3 18.1-8.6 18.1-6.5 35.7 3.6 52.3-14.8 7.5-10.4 39.9.7 45.4M6533.4 129.4c-1.6 15.8-3.2 29.9-3.2 29.9M6537.2 92c-.6 6-1.2 11.9-1.8 17.7M6543.9 24.5c-.1 2.2-.7 8.6-1.6 17.5"/><g><path d="M6749.4 89.8c.7-3.3 4.4-51.7 7.1-70.9 2.4-17.3 16.1-14.4 16.1-14.4l39.3 4.7s13-.3 12 15.4M6781.1 19.2l18.4 2.2M6764.7 69.8l36.1 4.3M6762.3 98.1l27.7 3.3M6761.2 112.8l19.9 2.4M6786 87.3l14.5 1.8M6763.7 84.3l10.3 1.3M6810.2 159.3s0 16-19.4 14.2c-14-1.3-38.3-5.7-38.3-5.7-2.7-1.1-10.2-3.4-10.1-15.8"/><path d="M6745.7 97s13.5 3.2 11.3 14.8c-1.8 9.9-11.3 11.7-16.1 11.1-9.9-1.2-17-9.1-17-18.2 0-12.5 10-22.7 25.1-20.1"/><path d="M6744 123.5c-3.1-.6-13.7-3.2-16.1 6.2-2.1 8.1 2.9 16.5 14.5 19.1 4.6 1.1 12.4.4 14.3-6.7 3.5-13.3-9.6-17.9-12.7-18.6zM6755.6 169c-5.4 4.5-5.6 14.7 6.1 19.2 6.5 2.5 17.4 3.4 21-1.5 2.1-2.8 5.5-11-5-14.8M6749 93.8c.3-1.4 1.3-11.9 2.5-25M6753 38c-5.7-3.7-17.3-5-21.3 5.3-4.2 10.8 13.8 22.5 18.6 24"/></g><path d="M6784.9 177.9c17.6 10.5 47.9 12.6 63.8-1.9 26-23.7 15.7-51.1 12.7-59.9-5-14.7-27.7-33.5-19.5-53 3-7.1 17.1-24.8 5.2-31.5-12.1-6.8-24 8.9-28.3 18.1-8.6 18.1-6.5 35.7 3.6 52.3-14.8 7.5-10.4 39.9.7 45.4M6813.4 129.9c-1.6 15.8-3.2 29.4-3.2 29.4M6817.2 92c-.6 6-1.2 11.9-1.8 17.7M6823.9 24.5c-.1 2.2-.7 8.6-1.6 17.5"/><g><path d="M7029.4 89.8c.7-3.3 4.4-51.7 7.1-70.9 2.4-17.3 16.1-14.4 16.1-14.4l39.3 4.7s13-.3 12 15.4M7061.1 19.2l18.4 2.2M7044.7 69.8l36.1 4.3M7042.3 98.1l27.7 3.3M7041.2 112.8l19.9 2.4M7066 87.3l14.5 1.8M7043.7 84.3l10.3 1.3M7090.2 159.3s0 16-19.4 14.2c-14-1.3-38.3-5.7-38.3-5.7-2.7-1.1-10.2-3.4-10.1-15.8"/><path d="M7025.7 97s13.5 3.2 11.3 14.8c-1.8 9.9-11.3 11.7-16.1 11.1-9.9-1.2-17-9.1-17-18.2 0-12.5 10-22.7 25.1-20.1"/><path d="M7024 123.5c-3.1-.6-13.7-3.2-16.1 6.2-2.1 8.1 2.9 16.5 14.5 19.1 4.6 1.1 12.4.4 14.3-6.7 3.5-13.3-9.6-17.9-12.7-18.6zM7035.6 169c-5.4 4.5-5.6 14.7 6.1 19.2 6.5 2.5 17.4 3.4 21-1.5 2.1-2.8 5.5-11-5-14.8M7029 93.8c.3-1.4 1.3-11.9 2.5-25M7033 38c-5.7-3.7-17.3-5-21.3 5.3-4.2 10.8 13.8 22.5 18.6 24"/></g><path d="M7064.9 177.9c17.6 10.5 47.9 12.6 63.8-1.9 26-23.7 15.7-51.1 12.7-59.9-5-14.7-27.7-33.5-19.5-53 3-7.1 17.1-24.8 5.2-31.5-12.1-6.8-24 8.9-28.3 18.1-8.6 18.1-6.5 35.7 3.6 52.3-14.8 7.5-10.4 39.9.7 45.4M7093.2 130.2c-1.6 15.8-3 29.1-3 29.1M7097.2 92c-.6 6-1.2 11.9-1.8 17.7M7103.9 24.5c-.1 2.2-.7 8.6-1.6 17.5"/><g><path d="M7309.4 89.8c.7-3.3 4.4-51.7 7.1-70.9 2.4-17.3 16.1-14.4 16.1-14.4l39.3 4.7s13-.3 12 15.4M7341.1 19.2l18.4 2.2M7324.7 69.8l36.1 4.3M7322.3 98.1l27.7 3.3M7321.2 112.8l19.9 2.4M7346 87.3l14.5 1.8M7323.7 84.3l10.3 1.3M7370.2 159.3s0 16-19.4 14.2c-14-1.3-38.3-5.7-38.3-5.7-2.7-1.1-10.2-3.4-10.1-15.8"/><path d="M7305.7 97s13.5 3.2 11.3 14.8c-1.8 9.9-11.3 11.7-16.1 11.1-9.9-1.2-17-9.1-17-18.2 0-12.5 10-22.7 25.1-20.1"/><path d="M7304 123.5c-3.1-.6-13.7-3.2-16.1 6.2-2.1 8.1 2.9 16.5 14.5 19.1 4.6 1.1 12.4.4 14.3-6.7 3.5-13.3-9.6-17.9-12.7-18.6zM7315.6 169c-5.4 4.5-5.6 14.7 6.1 19.2 6.5 2.5 17.4 3.4 21-1.5 2.1-2.8 5.5-11-5-14.8M7309 93.8c.3-1.4 1.3-11.9 2.5-25M7313 38c-5.7-3.7-17.3-5-21.3 5.3-4.2 10.8 13.8 22.5 18.6 24"/></g><path d="M7344.9 177.9c17.6 10.5 47.9 12.6 63.8-1.9 26-23.7 15.7-51.1 12.7-59.9-5-14.7-27.7-33.5-19.5-53 3-7.1 17.1-24.8 5.2-31.5-12.1-6.8-24 8.9-28.3 18.1-8.6 18.1-6.5 35.7 3.6 52.3-14.8 7.5-10.4 39.9.7 45.4M7373.2 130c-1.6 15.8-3 29.3-3 29.3M7377.2 92c-.6 6-1.2 11.9-1.8 17.7M7383.9 24.5c-.1 2.2-.7 8.6-1.6 17.5"/><g><path d="M7589.4 89.8c.7-3.3 4.4-51.7 7.1-70.9 2.4-17.3 16.1-14.4 16.1-14.4l39.3 4.7s13-.3 12 15.4M7621.1 19.2l18.4 2.2M7604.7 69.8l36.1 4.3M7602.3 98.1l27.7 3.3M7601.2 112.8l19.9 2.4M7626 87.3l14.5 1.8M7603.7 84.3l10.3 1.3M7650.2 159.3s0 16-19.4 14.2c-14-1.3-38.3-5.7-38.3-5.7-2.7-1.1-10.2-3.4-10.1-15.8"/><path d="M7585.7 97s13.5 3.2 11.3 14.8c-1.8 9.9-11.3 11.7-16.1 11.1-9.9-1.2-17-9.1-17-18.2 0-12.5 10-22.7 25.1-20.1"/><path d="M7584 123.5c-3.1-.6-13.7-3.2-16.1 6.2-2.1 8.1 2.9 16.5 14.5 19.1 4.6 1.1 12.4.4 14.3-6.7 3.5-13.3-9.6-17.9-12.7-18.6zM7595.6 169c-5.4 4.5-5.6 14.7 6.1 19.2 6.5 2.5 17.4 3.4 21-1.5 2.1-2.8 5.5-11-5-14.8M7589 93.8c.3-1.4 1.3-11.9 2.5-25M7593 38c-5.7-3.7-17.3-5-21.3 5.3-4.2 10.8 13.8 22.5 18.6 24"/></g><path d="M7624.9 177.9c17.6 10.5 47.9 12.6 63.8-1.9 26-23.7 15.7-51.1 12.7-59.9-5-14.7-27.7-33.5-19.5-53 3-7.1 17.1-24.8 5.2-31.5-12.1-6.8-24 8.9-28.3 18.1-8.6 18.1-6.5 35.7 3.6 52.3-14.8 7.5-10.4 39.9.7 45.4M7653.2 130.2c-1.6 15.8-3 29.1-3 29.1M7657.2 92c-.6 6-1.2 11.9-1.8 17.7M7663.9 24.5c-.1 2.2-.7 8.6-1.6 17.5"/><g><path d="M309.4 89.8c.7-3.3 4.4-51.7 7.1-70.9 2.4-17.3 16.1-14.4 16.1-14.4l39.3 4.7s13-.3 12 15.4M341.1 19.2l18.4 2.2M324.7 69.8l36.1 4.3M322.3 98.1l27.7 3.3M323.7 84.3l36.8 4.8M370.2 159.3s0 16-19.4 14.2c-14-1.3-38.3-5.7-38.3-5.7-2.7-1.1-10.2-3.4-10.1-15.8"/><path d="M305.7 97s13.5 3.2 11.3 14.8c-1.8 9.9-11.3 11.7-16.1 11.1-9.9-1.2-17-9.1-17-18.2 0-12.5 10-22.7 25.1-20.1"/><path d="M304 123.5c-3.1-.6-13.7-3.2-16.1 6.2-2.1 8.1 2.9 16.5 14.5 19.1 4.6 1.1 12.4.4 14.3-6.7 3.5-13.3-9.6-17.9-12.7-18.6zM315.6 169c-5.4 4.5-5.6 14.7 6.1 19.2 6.5 2.5 17.4 3.4 21-1.5 2.1-2.8 5.5-11-5-14.8M309 93.8c.3-1.4 1.3-11.9 2.5-25M313 38c-5.7-3.7-17.3-5-21.3 5.3-4.2 10.8 13.8 22.5 18.6 24"/></g><path d="M373.2 130.2c-1.6 15.8-3 29.1-3 29.1M377.2 92c-.6 6-1.2 11.9-1.8 17.7M383.9 24.5c-.1 2.2-.7 8.6-1.6 17.5M1225 116.8l6.9-1.7M1214.6 134.5c1.7 6.5 4.8 12 8.8 14"/><path d="M1184.9 177.9c17.6 10.5 47.9 12.6 63.8-1.9 26-23.7 15.4-51.4 12.7-59.9-13.1-34.8-39.5-30.5-52.7-20.7-9 6.7-20 24.5-9.2 34.2 3.6 3.2 8.6 4.2 13.2 2.6 4.9-1.7 6.2-5.4 8.6-9.6 1.2-2.1 2.2-4.2 3.5-6.3.1-.1.3-.4.6-.8.5-.7 1.2-1.8 1.9-2.9.8-1.3 1.7-2.6 2.4-3.7M344.9 177.9c17.6 10.5 47.9 12.6 63.8-1.9 26-23.7 15.7-51.1 12.7-59.9-5-14.7-27.7-33.5-19.5-53 3-7.1 17.1-24.8 5.2-31.5-12.1-6.8-24 8.9-28.3 18.1-8.6 18.1-6.5 35.7 3.6 52.3-14.8 7.5-10.4 39.9.7 45.4M904.9 177.9c17.6 10.5 47.9 12.6 63.8-1.9 26-23.7 15.4-51.4 12.7-59.9-12.7-34.8-41.5-31.2-54.9-21.9-9.2 6.4-21.9 24.1-11.1 33.8 3.6 3.2 8.6 4.2 13.2 2.6 4.9-1.7 6.9-3.6 9.3-7.8 1.2-2.1 2.2-4.2 3.5-6.3.1-.1.3-.4.6-.8.5-.7 1.2-1.8 1.9-2.9.8-1.3 1.7-2.6 2.4-3.7"/></g></svg>