<svg xmlns="http://www.w3.org/2000/svg" xmlns:xlink="http://www.w3.org/1999/xlink" viewBox="0 0 9800 280">
<style type="text/css">
	.st0{fill:none;stroke:#222222;stroke-width:7;stroke-linecap:round;stroke-linejoin:round;stroke-miterlimit:10;}
</style>
<g>
	<path class="st0" d="M104.4,132.8c0.7-3.3,4.4-51.7,7.1-70.9c2.4-17.3,16.1-14.4,16.1-14.4l39.3,4.7c0,0,13-0.3,12,15.4"/>
	<line class="st0" x1="136.1" y1="62.2" x2="154.5" y2="64.4"/>
	<line class="st0" x1="119.7" y1="112.8" x2="155.8" y2="117.1"/>
	<line class="st0" x1="117.3" y1="141.1" x2="145" y2="144.4"/>
	<line class="st0" x1="118.7" y1="127.3" x2="155.5" y2="132.1"/>
	<path class="st0" d="M165.2,202.3c0,0,0,16-19.4,14.2c-14-1.3-38.3-5.7-38.3-5.7c-2.7-1.1-10.2-3.4-10.1-15.8"/>
	<path class="st0" d="M100.7,140c0,0,13.5,3.2,11.3,14.8c-1.8,9.9-11.3,11.7-16.1,11.1c-9.9-1.2-17-9.1-17-18.2
		c0-12.5,10-22.7,25.1-20.1"/>
	<path class="st0" d="M99,166.5c-3.1-0.6-13.7-3.2-16.1,6.2c-2.1,8.1,2.9,16.5,14.5,19.1c4.7,1.1,12.4,0.4,14.3-6.7
		C115.2,171.8,102.1,167.2,99,166.5z"/>
	<path class="st0" d="M110.6,212c-5.4,4.5-5.6,14.7,6.1,19.2c6.5,2.5,17.4,3.4,21-1.5c2.1-2.8,5.5-11-5-14.8"/>
	<path class="st0" d="M104,136.8c0.3-1.4,1.3-11.9,2.5-25"/>
	<path class="st0" d="M108,81c-5.7-3.7-17.3-5-21.3,5.3c-4.2,10.8,13.8,22.5,18.6,24"/>
</g>
<path class="st0" d="M139.2,221.2c17.6,10.5,48.6,12.3,64.5-2.2c26-23.7,15.7-51.1,12.7-59.9c-5-14.7-27.7-33.5-19.5-53
	c3-7.1,17.1-24.8,5.2-31.5c-12.1-6.8-24,8.9-28.3,18.1c-8.6,18.1-6.5,35.7,3.6,52.3c-14.8,7.5-10.4,39.9,0.7,45.4"/>
<path class="st0" d="M728.4,171.7c-0.1,1.2-3.2,30.6-3.2,30.6"/>
<path class="st0" d="M730.4,152.8"/>
<path class="st0" d="M738.9,67.5c-0.3,4.7-2.7,28.5-5.4,54.9"/>
<path class="st0" d="M1008.3,173.2c-1.8,17-3,29.1-3,29.1"/>
<path class="st0" d="M1018.9,67.5c-0.3,5.2-3.2,33.9-6.3,63.5"/>
<path class="st0" d="M1287.9,176.5c-1.6,15.2-2.7,25.8-2.7,25.8"/>
<path class="st0" d="M1298.9,67.5c-0.3,5.3-3.3,35.1-6.5,65.3"/>
<path class="st0" d="M1568.3,172.9c-1.8,17.2-3.1,29.4-3.1,29.4"/>
<path class="st0" d="M1578.9,67.5c-0.4,6.5-4.9,50-8.6,85.9"/>
<path class="st0" d="M1848,175.8c-1.6,15.6-2.8,26.6-2.8,26.6"/>
<path class="st0" d="M1852.1,136.5c0,0.2-0.1,0.5-0.1,0.7c-0.4,4.2-0.9,8.4-1.3,12.5"/>
<path class="st0" d="M1858.9,67.5c-0.1,2.3-0.8,9.4-1.8,19.1"/>
<path class="st0" d="M2128,175.9c-1.6,15.5-2.8,26.4-2.8,26.4"/>
<path class="st0" d="M2132.1,136.2c-0.5,4.8-1,9.7-1.5,14.4"/>
<path class="st0" d="M2138.9,67.5c-0.1,2.2-0.8,8.9-1.7,18.2"/>
<path class="st0" d="M2408.2,173.6c-1.7,16.8-3,28.7-3,28.7"/>
<path class="st0" d="M2412.2,135.7c-0.5,4.8-1,9.6-1.5,14.2"/>
<path class="st0" d="M2418.9,67.5c-0.1,2.2-0.7,8.5-1.6,17.3"/>
<g>
	<line class="st0" x1="696.1" y1="62.2" x2="714.5" y2="64.4"/>
	<line class="st0" x1="679.7" y1="112.8" x2="715.8" y2="117.1"/>
	<line class="st0" x1="677.3" y1="141.1" x2="705" y2="144.4"/>
	<line class="st0" x1="678.7" y1="127.3" x2="712" y2="131.7"/>
	<path class="st0" d="M725.2,202.3c0,0,0,16-19.4,14.2c-14-1.3-38.3-5.7-38.3-5.7c-2.7-1.1-10.2-3.4-10.1-15.8"/>
	<path class="st0" d="M664.4,132.8c0.7-3.3,4.4-51.7,7.1-70.9c2.4-17.3,16.1-14.4,16.1-14.4l39.3,4.7c0,0,13-0.3,12,15.4"/>
	<path class="st0" d="M660.7,140c0,0,13.5,3.2,11.3,14.8c-1.8,9.9-11.3,11.7-16.1,11.1c-9.9-1.2-17-9.1-17-18.2
		c0-12.5,10-22.7,25.1-20.1"/>
	<path class="st0" d="M659,166.5c-3.1-0.6-13.7-3.2-16.1,6.2c-2.1,8.1,2.9,16.5,14.5,19.1c4.7,1.1,12.4,0.4,14.3-6.7
		C675.2,171.8,662.1,167.2,659,166.5z"/>
	<path class="st0" d="M670.6,212c-5.4,4.5-5.6,14.7,6.1,19.2c6.5,2.5,17.4,3.4,21-1.5c2.1-2.8,5.5-11-5-14.8"/>
	<path class="st0" d="M664,136.8c0.3-1.4,1.3-11.9,2.5-25"/>
	<path class="st0" d="M668,81c-5.7-3.7-17.3-5-21.3,5.3c-4.2,10.8,13.8,22.5,18.6,24"/>
</g>
<path class="st0" d="M735.9,148.2c1.6,4.7,5.5,5.1,8.3,4.7"/>
<path class="st0" d="M737.7,146c-14.8,7.5-10.4,39.9,0.7,45.4"/>
<path class="st0" d="M699.2,221.2c17.6,10.5,48.6,12.3,64.5-2.2c26-23.7,15.4-51.4,12.7-59.9c-10.3-31.1-30.1-42-52.3-33.2
	c-10,4-25.3,16.3-16,28.4c6,7.8,17.6,1.3,22.6-2.8c1.8-1.5,7.7-6.5,9.7-8.7"/>
<g>
	<line class="st0" x1="976.1" y1="62.2" x2="994.5" y2="64.4"/>
	<g>
		<line class="st0" x1="958.5" y1="121.4" x2="994.5" y2="125.6"/>
		<line class="st0" x1="956" y1="149.7" x2="983.7" y2="153"/>
		<line class="st0" x1="957.5" y1="135.9" x2="994.2" y2="140.6"/>
	</g>
	<path class="st0" d="M1005.2,202.3c0,0,0,16-19.4,14.2c-14-1.3-38.3-5.7-38.3-5.7c-2.7-1.1-10.2-3.4-10.1-15.8"/>
	<path class="st0" d="M944.4,132.8c0.7-3.3,4.4-51.7,7.1-70.9c2.4-17.3,16.1-14.4,16.1-14.4l39.3,4.7c0,0,13-0.3,12,15.4"/>
	<path class="st0" d="M940.7,140c0,0,13.5,3.2,11.3,14.8c-1.8,9.9-11.3,11.7-16.1,11.1c-9.9-1.2-17-9.1-17-18.2
		c0-12.5,10-22.7,25.1-20.1"/>
	<path class="st0" d="M939,166.5c-3.1-0.6-13.7-3.2-16.1,6.2c-2.1,8.1,2.9,16.5,14.5,19.1c4.7,1.1,12.4,0.4,14.3-6.7
		C955.2,171.8,942.1,167.2,939,166.5z"/>
	<path class="st0" d="M950.6,212c-5.4,4.5-5.6,14.7,6.1,19.2c6.5,2.5,17.4,3.4,21-1.5c2.1-2.8,5.5-11-5-14.8"/>
	<path class="st0" d="M944,136.8c0.3-1.4,1.3-11.9,2.5-25"/>
	<path class="st0" d="M948,81c-5.7-3.7-17.3-5-21.3,5.3c-4.2,10.8,13.8,22.5,18.6,24"/>
</g>
<g>
	<line class="st0" x1="1256.1" y1="62.2" x2="1274.5" y2="64.4"/>
	<path class="st0" d="M1285.2,202.3c0,0,0,16-19.4,14.2c-14-1.3-38.3-5.7-38.3-5.7c-2.7-1.1-10.2-3.4-10.1-15.8"/>
	<path class="st0" d="M1224.4,132.8c0.7-3.3,4.4-51.7,7.1-70.9c2.4-17.3,16.1-14.4,16.1-14.4l39.3,4.7c0,0,13-0.3,12,15.4"/>
	<path class="st0" d="M1220.7,140c0,0,13.5,3.2,11.3,14.8c-1.8,9.9-11.3,11.7-16.1,11.1c-9.9-1.2-17-9.1-17-18.2
		c0-12.5,10-22.7,25.1-20.1"/>
	<path class="st0" d="M1219,166.5c-3.1-0.6-13.7-3.2-16.1,6.2c-2.1,8.1,2.9,16.5,14.5,19.1c4.7,1.1,12.4,0.4,14.3-6.7
		C1235.2,171.8,1222.1,167.2,1219,166.5z"/>
	<path class="st0" d="M1230.6,212c-5.4,4.5-5.6,14.7,6.1,19.2c6.5,2.5,17.4,3.4,21-1.5c2.1-2.8,5.5-11-5-14.8"/>
	<path class="st0" d="M1224,136.8c0.3-1.4,1.3-11.9,2.5-25"/>
	<path class="st0" d="M1228,81c-5.7-3.7-17.3-5-21.3,5.3c-4.2,10.8,13.8,22.5,18.6,24"/>
	<g>
		<line class="st0" x1="1238.5" y1="123.4" x2="1274.5" y2="127.6"/>
		<line class="st0" x1="1236" y1="151.7" x2="1263.7" y2="155"/>
		<line class="st0" x1="1237.5" y1="137.9" x2="1274.2" y2="142.6"/>
	</g>
</g>
<line class="st0" x1="1018.5" y1="158" x2="1026.9" y2="156.5"/>
<path class="st0" d="M1008.6,172c1.1,8.8,4.8,16.9,9.9,19.5"/>
<path class="st0" d="M979.2,221.2c17.6,10.5,48.6,12.3,64.5-2.2c26-23.7,15.4-51.4,12.7-59.9c-12.7-34.8-41.5-31.2-54.9-21.9
	c-9.2,6.4-21.9,24.1-11.1,33.8c3.6,3.2,8.6,4.2,13.2,2.6c4.9-1.7,6.9-3.6,9.3-7.8c1.2-2.1,2.2-4.2,3.5-6.3c0.1-0.1,0.3-0.4,0.6-0.8
	c0.5-0.7,1.2-1.8,1.9-2.9c0.8-1.3,1.7-2.6,2.4-3.7"/>
<g>
	<line class="st0" x1="1536.1" y1="62.2" x2="1554.5" y2="64.4"/>
	<path class="st0" d="M1565.2,202.3c0,0,0,16-19.4,14.2c-14-1.3-38.3-5.7-38.3-5.7c-2.7-1.1-10.2-3.4-10.1-15.8"/>
	<path class="st0" d="M1504.4,132.8c0.7-3.3,4.4-51.7,7.1-70.9c2.4-17.3,16.1-14.4,16.1-14.4l39.3,4.7c0,0,13-0.3,12,15.4"/>
	<path class="st0" d="M1500.7,140c0,0,13.5,3.2,11.3,14.8c-1.8,9.9-11.3,11.7-16.1,11.1c-9.9-1.2-17-9.1-17-18.2
		c0-12.5,10-22.7,25.1-20.1"/>
	<path class="st0" d="M1499,166.5c-3.1-0.6-13.7-3.2-16.1,6.2c-2.1,8.1,2.9,16.5,14.5,19.1c4.7,1.1,12.4,0.4,14.3-6.7
		C1515.2,171.8,1502.1,167.2,1499,166.5z"/>
	<path class="st0" d="M1510.6,212c-5.4,4.5-5.6,14.7,6.1,19.2c6.5,2.5,17.4,3.4,21-1.5c2.1-2.8,5.5-11-5-14.8"/>
	<path class="st0" d="M1504,136.8c0.3-1.4,1.3-11.9,2.5-25"/>
	<path class="st0" d="M1508,81c-5.7-3.7-17.3-5-21.3,5.3c-4.2,10.8,13.8,22.5,18.6,24"/>
	<g>
		<line class="st0" x1="1523.5" y1="73.2" x2="1551.2" y2="76.5"/>
		<line class="st0" x1="1522.4" y1="87.9" x2="1542.3" y2="90.3"/>
	</g>
</g>
<path class="st0" d="M1539.2,221.2c17.6,10.5,48.6,12.3,64.5-2.2c26-23.7,15.4-51.4,12.7-59.9c-0.8-1.9-5.6-14.8-6.4-16.8
	c-4.1-10.9-11.1-23.4-5.4-35.4c3.7-7.9,19.4-22.1,12.2-31.3c-6-7.7-16.3-2.8-22.2,1.6c-18,13.6-22,37-15.6,57.6
	c0,0,3.5,8.5-1.4,11.3c-14.8,7.5-10.4,39.9,0.7,45.4"/>
<g>
	<line class="st0" x1="1816.1" y1="62.2" x2="1834.5" y2="64.4"/>
	<path class="st0" d="M1845.2,202.3c0,0,0,16-19.4,14.2c-14-1.3-38.3-5.7-38.3-5.7c-2.7-1.1-10.2-3.4-10.1-15.8"/>
	<path class="st0" d="M1784.4,132.8c0.7-3.3,4.4-51.7,7.1-70.9c2.4-17.3,16.1-14.4,16.1-14.4l39.3,4.7c0,0,13-0.3,12,15.4"/>
	<path class="st0" d="M1780.7,140c0,0,13.5,3.2,11.3,14.8c-1.8,9.9-11.3,11.7-16.1,11.1c-9.9-1.2-17-9.1-17-18.2
		c0-12.5,10-22.7,25.1-20.1"/>
	<path class="st0" d="M1779,166.5c-3.1-0.6-13.7-3.2-16.1,6.2c-2.1,8.1,2.9,16.5,14.5,19.1c4.7,1.1,12.4,0.4,14.3-6.7
		C1795.2,171.8,1782.1,167.2,1779,166.5z"/>
	<path class="st0" d="M1790.6,212c-5.4,4.5-5.6,14.7,6.1,19.2c6.5,2.5,17.4,3.4,21-1.5c2.1-2.8,5.5-11-5-14.8"/>
	<path class="st0" d="M1784,136.8c0.3-1.4,1.3-11.9,2.5-25"/>
	<path class="st0" d="M1788,81c-5.7-3.7-17.3-5-21.3,5.3c-4.2,10.8,13.8,22.5,18.6,24"/>
</g>
<path class="st0" d="M1819.2,221.2c17.6,10.5,48.6,12.3,64.5-2.2c26-23.7,15.7-51.1,12.7-59.9c-5-14.7-27.7-33.5-19.5-53
	c3-7.1,17.1-24.8,5.2-31.5c-12.1-6.8-24,8.9-28.3,18.1c-8.6,18.1-6.5,35.7,3.6,52.3c-14.8,7.5-10.4,39.9,0.7,45.4"/>
<g>
	<line class="st0" x1="2096.1" y1="62.2" x2="2114.5" y2="64.4"/>
	<path class="st0" d="M2125.2,202.3c0,0,0,16-19.4,14.2c-14-1.3-38.3-5.7-38.3-5.7c-2.7-1.1-10.2-3.4-10.1-15.8"/>
	<path class="st0" d="M2064.4,132.8c0.7-3.3,4.4-51.7,7.1-70.9c2.4-17.3,16.1-14.4,16.1-14.4l39.3,4.7c0,0,13-0.3,12,15.4"/>
	<path class="st0" d="M2060.7,140c0,0,13.5,3.2,11.3,14.8c-1.8,9.9-11.3,11.7-16.1,11.1c-9.9-1.2-17-9.1-17-18.2
		c0-12.5,10-22.7,25.1-20.1"/>
	<path class="st0" d="M2059,166.5c-3.1-0.6-13.7-3.2-16.1,6.2c-2.1,8.1,2.9,16.5,14.5,19.1c4.6,1.1,12.4,0.4,14.3-6.7
		C2075.2,171.8,2062.1,167.2,2059,166.5z"/>
	<path class="st0" d="M2070.6,212c-5.4,4.5-5.6,14.7,6.1,19.2c6.5,2.5,17.4,3.4,21-1.5c2.1-2.8,5.5-11-5-14.8"/>
	<path class="st0" d="M2064,136.8c0.3-1.4,1.3-11.9,2.5-25"/>
	<path class="st0" d="M2068,81c-5.7-3.7-17.3-5-21.3,5.3c-4.2,10.8,13.8,22.5,18.6,24"/>
</g>
<path class="st0" d="M2099.2,221.2c17.6,10.5,48.6,12.3,64.5-2.2c26-23.7,15.7-51.1,12.7-59.9c-5-14.7-27.7-33.5-19.5-53
	c3-7.1,17.1-24.8,5.2-31.5c-12.1-6.8-24,8.9-28.3,18.1c-8.6,18.1-6.5,35.7,3.6,52.3c-14.8,7.5-10.4,39.9,0.7,45.4"/>
<path class="st0" d="M2688.4,171.7c-0.1,1.2-3.2,30.6-3.2,30.6"/>
<path class="st0" d="M2690.4,152.8"/>
<path class="st0" d="M2698.9,67.5c-0.3,4.7-2.7,28.5-5.4,54.9"/>
<path class="st0" d="M2968.3,173.2c-1.8,17-3,29.1-3,29.1"/>
<path class="st0" d="M2978.9,67.5c-0.3,5.2-3.2,33.9-6.3,63.5"/>
<path class="st0" d="M3247.9,176.5c-1.6,15.2-2.7,25.8-2.7,25.8"/>
<path class="st0" d="M3258.9,67.5c-0.3,5.3-3.3,35.1-6.5,65.3"/>
<path class="st0" d="M3528.3,172.9c-1.8,17.2-3.1,29.4-3.1,29.4"/>
<path class="st0" d="M3538.9,67.5c-0.4,6.5-4.9,50-8.6,85.9"/>
<path class="st0" d="M3808,175.8c-1.6,15.6-2.8,26.6-2.8,26.6"/>
<path class="st0" d="M3812.1,136.5c0,0.2-0.1,0.5-0.1,0.7c-0.4,4.2-0.9,8.4-1.3,12.5"/>
<path class="st0" d="M3818.9,67.5c-0.1,2.3-0.8,9.4-1.8,19.1"/>
<path class="st0" d="M4088,175.9c-1.6,15.5-2.8,26.4-2.8,26.4"/>
<path class="st0" d="M4092.1,136.2c-0.5,4.8-1,9.7-1.5,14.4"/>
<path class="st0" d="M4098.9,67.5c-0.1,2.2-0.8,8.9-1.7,18.2"/>
<path class="st0" d="M4368.2,173.6c-1.7,16.8-3,28.7-3,28.7"/>
<path class="st0" d="M4372.1,135.7c-0.5,4.8-1,9.6-1.5,14.2"/>
<path class="st0" d="M4378.9,67.5c-0.1,2.2-0.7,8.5-1.6,17.3"/>
<g>
	<line class="st0" x1="2656.1" y1="62.2" x2="2674.5" y2="64.4"/>
	<path class="st0" d="M2685.2,202.3c0,0,0,16-19.4,14.2c-14-1.3-38.3-5.7-38.3-5.7c-2.7-1.1-10.2-3.4-10.1-15.8"/>
	<path class="st0" d="M2624.4,132.8c0.7-3.3,4.4-51.7,7.1-70.9c2.4-17.3,16.1-14.4,16.1-14.4l39.3,4.7c0,0,13-0.3,12,15.4"/>
	<path class="st0" d="M2620.7,140c0,0,13.5,3.2,11.3,14.8c-1.8,9.9-11.3,11.7-16.1,11.1c-9.9-1.2-17-9.1-17-18.2
		c0-12.5,10-22.7,25.1-20.1"/>
	<path class="st0" d="M2619,166.5c-3.1-0.6-13.7-3.2-16.1,6.2c-2.1,8.1,2.9,16.5,14.5,19.1c4.6,1.1,12.4,0.4,14.3-6.7
		C2635.2,171.8,2622.1,167.2,2619,166.5z"/>
	<path class="st0" d="M2630.6,212c-5.4,4.5-5.6,14.7,6.1,19.2c6.5,2.5,17.4,3.4,21-1.5c2.1-2.8,5.5-11-5-14.8"/>
	<path class="st0" d="M2624,136.8c0.3-1.4,1.3-11.9,2.5-25"/>
	<path class="st0" d="M2628,81c-5.7-3.7-17.3-5-21.3,5.3c-4.2,10.8,13.8,22.5,18.6,24"/>
</g>
<path class="st0" d="M2695.9,148.2c1.6,4.7,5.5,5.1,8.3,4.7"/>
<path class="st0" d="M2697.7,146c-14.8,7.5-10.4,39.9,0.7,45.4"/>
<path class="st0" d="M2659.2,221.2c17.6,10.5,48.6,12.3,64.5-2.2c26-23.7,15.4-51.4,12.7-59.9c-10.3-31.1-30.1-42-52.3-33.2
	c-10,4-25.3,16.3-16,28.4c6,7.8,17.6,1.3,22.6-2.8c1.8-1.5,7.7-6.5,9.7-8.7"/>
<g>
	<line class="st0" x1="2936.1" y1="62.2" x2="2954.5" y2="64.4"/>
	<g>
		<line class="st0" x1="2914.9" y1="164.4" x2="2934.8" y2="166.8"/>
	</g>
	<path class="st0" d="M2965.2,202.3c0,0,0,16-19.4,14.2c-14-1.3-38.3-5.7-38.3-5.7c-2.7-1.1-10.2-3.4-10.1-15.8"/>
	<path class="st0" d="M2904.4,132.8c0.7-3.3,4.4-51.7,7.1-70.9c2.4-17.3,16.1-14.4,16.1-14.4l39.3,4.7c0,0,13-0.3,12,15.4"/>
	<path class="st0" d="M2900.7,140c0,0,13.5,3.2,11.3,14.8c-1.8,9.9-11.3,11.7-16.1,11.1c-9.9-1.2-17-9.1-17-18.2
		c0-12.5,10-22.7,25.1-20.1"/>
	<path class="st0" d="M2899,166.5c-3.1-0.6-13.7-3.2-16.1,6.2c-2.1,8.1,2.9,16.5,14.5,19.1c4.6,1.1,12.4,0.4,14.3-6.7
		C2915.2,171.8,2902.1,167.2,2899,166.5z"/>
	<path class="st0" d="M2910.6,212c-5.4,4.5-5.6,14.7,6.1,19.2c6.5,2.5,17.4,3.4,21-1.5c2.1-2.8,5.5-11-5-14.8"/>
	<path class="st0" d="M2904,136.8c0.3-1.4,1.3-11.9,2.5-25"/>
	<path class="st0" d="M2908,81c-5.7-3.7-17.3-5-21.3,5.3c-4.2,10.8,13.8,22.5,18.6,24"/>
</g>
<g>
	<line class="st0" x1="3216.1" y1="62.2" x2="3234.5" y2="64.4"/>
	<path class="st0" d="M3245.2,202.3c0,0,0,16-19.4,14.2c-14-1.3-38.3-5.7-38.3-5.7c-2.7-1.1-10.2-3.4-10.1-15.8"/>
	<path class="st0" d="M3184.4,132.8c0.7-3.3,4.4-51.7,7.1-70.9c2.4-17.3,16.1-14.4,16.1-14.4l39.3,4.7c0,0,13-0.3,12,15.4"/>
	<path class="st0" d="M3180.7,140c0,0,13.5,3.2,11.3,14.8c-1.8,9.9-11.3,11.7-16.1,11.1c-9.9-1.2-17-9.1-17-18.2
		c0-12.5,10-22.7,25.1-20.1"/>
	<path class="st0" d="M3179,166.5c-3.1-0.6-13.7-3.2-16.1,6.2c-2.1,8.1,2.9,16.5,14.5,19.1c4.6,1.1,12.4,0.4,14.3-6.7
		C3195.2,171.8,3182.1,167.2,3179,166.5z"/>
	<path class="st0" d="M3190.6,212c-5.4,4.5-5.6,14.7,6.1,19.2c6.5,2.5,17.4,3.4,21-1.5c2.1-2.8,5.5-11-5-14.8"/>
	<path class="st0" d="M3184,136.8c0.3-1.4,1.3-11.9,2.5-25"/>
	<path class="st0" d="M3188,81c-5.7-3.7-17.3-5-21.3,5.3c-4.2,10.8,13.8,22.5,18.6,24"/>
	<g>
		<line class="st0" x1="3194.9" y1="166.4" x2="3214.8" y2="168.8"/>
	</g>
</g>
<line class="st0" x1="2978.5" y1="158" x2="2986.9" y2="156.5"/>
<path class="st0" d="M2968.6,172c1.1,8.8,4.8,16.9,9.9,19.5"/>
<path class="st0" d="M2939.2,221.2c17.6,10.5,48.6,12.3,64.5-2.2c26-23.7,15.4-51.4,12.7-59.9c-12.7-34.8-41.5-31.2-54.9-21.9
	c-9.2,6.4-21.9,24.1-11.1,33.8c3.6,3.2,8.6,4.2,13.2,2.6c4.9-1.7,6.9-3.6,9.3-7.8c1.2-2.1,2.2-4.2,3.5-6.3c0.1-0.1,0.3-0.4,0.6-0.8
	c0.5-0.7,1.2-1.8,1.9-2.9c0.8-1.3,1.7-2.6,2.4-3.7"/>
<g>
	<line class="st0" x1="3496.1" y1="62.2" x2="3514.5" y2="64.4"/>
	<path class="st0" d="M3525.2,202.3c0,0,0,16-19.4,14.2c-14-1.3-38.3-5.7-38.3-5.7c-2.7-1.1-10.2-3.4-10.1-15.8"/>
	<path class="st0" d="M3464.4,132.8c0.7-3.3,4.4-51.7,7.1-70.9c2.4-17.3,16.1-14.4,16.1-14.4l39.3,4.7c0,0,13-0.3,12,15.4"/>
	<path class="st0" d="M3460.7,140c0,0,13.5,3.2,11.3,14.8c-1.8,9.9-11.3,11.7-16.1,11.1c-9.9-1.2-17-9.1-17-18.2
		c0-12.5,10-22.7,25.1-20.1"/>
	<path class="st0" d="M3459,166.5c-3.1-0.6-13.7-3.2-16.1,6.2c-2.1,8.1,2.9,16.5,14.5,19.1c4.6,1.1,12.4,0.4,14.3-6.7
		C3475.2,171.8,3462.1,167.2,3459,166.5z"/>
	<path class="st0" d="M3470.6,212c-5.4,4.5-5.6,14.7,6.1,19.2c6.5,2.5,17.4,3.4,21-1.5c2.1-2.8,5.5-11-5-14.8"/>
	<path class="st0" d="M3464,136.8c0.3-1.4,1.3-11.9,2.5-25"/>
	<path class="st0" d="M3468,81c-5.7-3.7-17.3-5-21.3,5.3c-4.2,10.8,13.8,22.5,18.6,24"/>
</g>
<path class="st0" d="M3499.2,221.2c17.6,10.5,48.6,12.3,64.5-2.2c26-23.7,15.4-51.4,12.7-59.9c-0.8-1.9-5.6-14.8-6.4-16.8
	c-4.1-10.9-11.1-23.4-5.4-35.4c3.7-7.9,19.4-22.1,12.2-31.3c-6-7.7-16.3-2.8-22.2,1.6c-18,13.6-22,37-15.6,57.6
	c0,0,3.5,8.5-1.4,11.3c-14.8,7.5-10.4,39.9,0.7,45.4"/>
<g>
	<line class="st0" x1="3776.1" y1="62.2" x2="3794.5" y2="64.4"/>
	<path class="st0" d="M3805.2,202.3c0,0,0,16-19.4,14.2c-14-1.3-38.3-5.7-38.3-5.7c-2.7-1.1-10.2-3.4-10.1-15.8"/>
	<path class="st0" d="M3744.4,132.8c0.7-3.3,4.4-51.7,7.1-70.9c2.4-17.3,16.1-14.4,16.1-14.4l39.3,4.7c0,0,13-0.3,12,15.4"/>
	<path class="st0" d="M3740.7,140c0,0,13.5,3.2,11.3,14.8c-1.8,9.9-11.3,11.7-16.1,11.1c-9.9-1.2-17-9.1-17-18.2
		c0-12.5,10-22.7,25.1-20.1"/>
	<path class="st0" d="M3739,166.5c-3.1-0.6-13.7-3.2-16.1,6.2c-2.1,8.1,2.9,16.5,14.5,19.1c4.6,1.1,12.4,0.4,14.3-6.7
		C3755.2,171.8,3742.1,167.2,3739,166.5z"/>
	<path class="st0" d="M3750.6,212c-5.4,4.5-5.6,14.7,6.1,19.2c6.5,2.5,17.4,3.4,21-1.5c2.1-2.8,5.5-11-5-14.8"/>
	<path class="st0" d="M3744,136.8c0.3-1.4,1.3-11.9,2.5-25"/>
	<path class="st0" d="M3748,81c-5.7-3.7-17.3-5-21.3,5.3c-4.2,10.8,13.8,22.5,18.6,24"/>
</g>
<path class="st0" d="M3779.2,221.2c17.6,10.5,48.6,12.3,64.5-2.2c26-23.7,15.7-51.1,12.7-59.9c-5-14.7-27.7-33.5-19.5-53
	c3-7.1,17.1-24.8,5.2-31.5c-12.1-6.8-24,8.9-28.3,18.1c-8.6,18.1-6.5,35.7,3.6,52.3c-14.8,7.5-10.4,39.9,0.7,45.4"/>
<g>
	<line class="st0" x1="4056.1" y1="62.2" x2="4074.5" y2="64.4"/>
	<path class="st0" d="M4085.2,202.3c0,0,0,16-19.4,14.2c-14-1.3-38.3-5.7-38.3-5.7c-2.7-1.1-10.2-3.4-10.1-15.8"/>
	<path class="st0" d="M4024.4,132.8c0.7-3.3,4.4-51.7,7.1-70.9c2.4-17.3,16.1-14.4,16.1-14.4l39.3,4.7c0,0,13-0.3,12,15.4"/>
	<path class="st0" d="M4020.7,140c0,0,13.5,3.2,11.3,14.8c-1.8,9.9-11.3,11.7-16.1,11.1c-9.9-1.2-17-9.1-17-18.2
		c0-12.5,10-22.7,25.1-20.1"/>
	<path class="st0" d="M4019,166.5c-3.1-0.6-13.7-3.2-16.1,6.2c-2.1,8.1,2.9,16.5,14.5,19.1c4.6,1.1,12.4,0.4,14.3-6.7
		C4035.2,171.8,4022.1,167.2,4019,166.5z"/>
	<path class="st0" d="M4030.6,212c-5.4,4.5-5.6,14.7,6.1,19.2c6.5,2.5,17.4,3.4,21-1.5c2.1-2.8,5.5-11-5-14.8"/>
	<path class="st0" d="M4024,136.8c0.3-1.4,1.3-11.9,2.5-25"/>
	<path class="st0" d="M4028,81c-5.7-3.7-17.3-5-21.3,5.3c-4.2,10.8,13.8,22.5,18.6,24"/>
	<g>
		<line class="st0" x1="4033.5" y1="189.4" x2="4069.5" y2="193.6"/>
	</g>
</g>
<path class="st0" d="M4059.2,221.2c17.6,10.5,48.6,12.3,64.5-2.2c26-23.7,15.7-51.1,12.7-59.9c-5-14.7-27.7-33.5-19.5-53
	c3-7.1,17.1-24.8,5.2-31.5c-12.1-6.8-24,8.9-28.3,18.1c-8.6,18.1-6.5,35.7,3.6,52.3c-14.8,7.5-10.4,39.9,0.7,45.4"/>
<g>
	<line class="st0" x1="4336.1" y1="62.2" x2="4354.5" y2="64.4"/>
	<path class="st0" d="M4365.2,202.3c0,0,0,16-19.4,14.2c-14-1.3-38.3-5.7-38.3-5.7c-2.7-1.1-10.2-3.4-10.1-15.8"/>
	<path class="st0" d="M4304.4,132.8c0.7-3.3,4.4-51.7,7.1-70.9c2.4-17.3,16.1-14.4,16.1-14.4l39.3,4.7c0,0,13-0.3,12,15.4"/>
	<path class="st0" d="M4300.7,140c0,0,13.5,3.2,11.3,14.8c-1.8,9.9-11.3,11.7-16.1,11.1c-9.9-1.2-17-9.1-17-18.2
		c0-12.5,10-22.7,25.1-20.1"/>
	<path class="st0" d="M4299,166.5c-3.1-0.6-13.7-3.2-16.1,6.2c-2.1,8.1,2.9,16.5,14.5,19.1c4.6,1.1,12.4,0.4,14.3-6.7
		C4315.2,171.8,4302.1,167.2,4299,166.5z"/>
	<path class="st0" d="M4310.6,212c-5.4,4.5-5.6,14.7,6.1,19.2c6.5,2.5,17.4,3.4,21-1.5c2.1-2.8,5.5-11-5-14.8"/>
	<path class="st0" d="M4304,136.8c0.3-1.4,1.3-11.9,2.5-25"/>
	<path class="st0" d="M4308,81c-5.7-3.7-17.3-5-21.3,5.3c-4.2,10.8,13.8,22.5,18.6,24"/>
	<g>
		<line class="st0" x1="4318.5" y1="132.4" x2="4354.5" y2="136.6"/>
		<line class="st0" x1="4316" y1="160.7" x2="4343.7" y2="164"/>
		<line class="st0" x1="4314.9" y1="175.4" x2="4334.8" y2="177.8"/>
		<line class="st0" x1="4339.7" y1="149.9" x2="4354.2" y2="151.6"/>
		<line class="st0" x1="4317.5" y1="146.9" x2="4327.7" y2="148.1"/>
	</g>
</g>
<path class="st0" d="M4339.2,221.2c17.6,10.5,48.6,12.3,64.5-2.2c26-23.7,15.7-51.1,12.7-59.9c-5-14.7-27.7-33.5-19.5-53
	c3-7.1,17.1-24.8,5.2-31.5c-12.1-6.8-24,8.9-28.3,18.1c-8.6,18.1-6.5,35.7,3.6,52.3c-14.8,7.5-10.4,39.9,0.7,45.4"/>
<line class="st0" x1="3260" y1="159.8" x2="3266.9" y2="158.1"/>
<path class="st0" d="M3249.6,177.5c1.7,6.5,4.8,12,8.8,14"/>
<path class="st0" d="M3219.2,221.2c17.6,10.5,48.6,12.3,64.5-2.2c26-23.7,15.4-51.4,12.7-59.9c-13.1-34.8-39.5-30.5-52.7-20.7
	c-9,6.7-20,24.5-9.2,34.2c3.6,3.2,8.6,4.2,13.2,2.6c4.9-1.7,6.2-5.4,8.6-9.6c1.2-2.1,2.2-4.2,3.5-6.3c0.1-0.1,0.3-0.4,0.6-0.8
	c0.5-0.7,1.2-1.8,1.9-2.9c0.8-1.3,1.7-2.6,2.4-3.7"/>
<path class="st0" d="M8008.4,171.7c-0.1,1.2-3.2,30.6-3.2,30.6"/>
<path class="st0" d="M8010.4,152.8"/>
<path class="st0" d="M8018.9,67.5c-0.3,4.7-2.7,28.5-5.4,54.9"/>
<path class="st0" d="M8288.3,173.2c-1.8,17-3,29.1-3,29.1"/>
<path class="st0" d="M8298.9,67.5c-0.3,5.2-3.2,33.9-6.3,63.5"/>
<path class="st0" d="M8567.9,176.5c-1.6,15.2-2.7,25.8-2.7,25.8"/>
<path class="st0" d="M8578.9,67.5c-0.3,5.3-3.3,35.1-6.5,65.3"/>
<path class="st0" d="M8848.3,172.9c-1.8,17.2-3.1,29.4-3.1,29.4"/>
<path class="st0" d="M8858.9,67.5c-0.4,6.5-4.9,50-8.6,85.9"/>
<path class="st0" d="M9128,175.8c-1.6,15.6-2.8,26.6-2.8,26.6"/>
<path class="st0" d="M9132.1,136.5c0,0.2-0.1,0.5-0.1,0.7c-0.4,4.2-0.9,8.4-1.3,12.5"/>
<path class="st0" d="M9138.9,67.5c-0.1,2.3-0.8,9.4-1.8,19.1"/>
<path class="st0" d="M9408,175.9c-1.6,15.5-2.8,26.4-2.8,26.4"/>
<path class="st0" d="M9412.1,136.2c-0.5,4.8-1,9.7-1.5,14.4"/>
<path class="st0" d="M9418.9,67.5c-0.1,2.2-0.8,8.9-1.7,18.2"/>
<path class="st0" d="M9688.2,173.6c-1.7,16.8-3,28.7-3,28.7"/>
<path class="st0" d="M9692.2,135.7c-0.5,4.8-1,9.6-1.5,14.2"/>
<path class="st0" d="M9698.9,67.5c-0.1,2.2-0.7,8.5-1.6,17.3"/>
<g>
	<line class="st0" x1="7976.1" y1="62.2" x2="7994.5" y2="64.4"/>
	<line class="st0" x1="7959.7" y1="112.8" x2="7995.8" y2="117.1"/>
	<line class="st0" x1="7957.3" y1="141.1" x2="7985" y2="144.4"/>
	<line class="st0" x1="7956.2" y1="155.8" x2="7976.1" y2="158.2"/>
	<line class="st0" x1="7981" y1="130.3" x2="7992" y2="131.7"/>
	<line class="st0" x1="7958.7" y1="127.3" x2="7969" y2="128.6"/>
	<path class="st0" d="M8005.2,202.3c0,0,0,16-19.4,14.2c-14-1.3-38.3-5.7-38.3-5.7c-2.7-1.1-10.2-3.4-10.1-15.8"/>
	<path class="st0" d="M7944.4,132.8c0.7-3.3,4.4-51.7,7.1-70.9c2.4-17.3,16.1-14.4,16.1-14.4l39.3,4.7c0,0,13-0.3,12,15.4"/>
	<path class="st0" d="M7940.7,140c0,0,13.5,3.2,11.3,14.8c-1.8,9.9-11.3,11.7-16.1,11.1c-9.9-1.2-17-9.1-17-18.2
		c0-12.5,10-22.7,25.1-20.1"/>
	<path class="st0" d="M7939,166.5c-3.1-0.6-13.7-3.2-16.1,6.2c-2.1,8.1,2.9,16.5,14.5,19.1c4.6,1.1,12.4,0.4,14.3-6.7
		C7955.2,171.8,7942.1,167.2,7939,166.5z"/>
	<path class="st0" d="M7950.6,212c-5.4,4.5-5.6,14.7,6.1,19.2c6.5,2.5,17.4,3.4,21-1.5c2.1-2.8,5.5-11-5-14.8"/>
	<path class="st0" d="M7944,136.8c0.3-1.4,1.3-11.9,2.5-25"/>
	<path class="st0" d="M7948,81c-5.7-3.7-17.3-5-21.3,5.3c-4.2,10.8,13.8,22.5,18.6,24"/>
</g>
<path class="st0" d="M8015.9,148.2c1.6,4.7,5.5,5.1,8.3,4.7"/>
<path class="st0" d="M8017.7,146c-14.8,7.5-10.4,39.9,0.7,45.4"/>
<path class="st0" d="M7979.2,221.2c17.6,10.5,48.6,12.3,64.5-2.2c26-23.7,15.4-51.4,12.7-59.9c-10.3-31.1-30.1-42-52.3-33.2
	c-10,4-25.3,16.3-16,28.4c6,7.8,17.6,1.3,22.6-2.8c1.8-1.5,7.7-6.5,9.7-8.7"/>
<g>
	<line class="st0" x1="8256.1" y1="62.2" x2="8274.5" y2="64.4"/>
	<g>
		<line class="st0" x1="8238.5" y1="121.4" x2="8274.5" y2="125.6"/>
		<line class="st0" x1="8236" y1="149.7" x2="8263.7" y2="153"/>
		<line class="st0" x1="8234.9" y1="164.4" x2="8254.8" y2="166.8"/>
		<line class="st0" x1="8259.7" y1="138.9" x2="8274.2" y2="140.6"/>
		<line class="st0" x1="8237.5" y1="135.9" x2="8247.7" y2="137.1"/>
	</g>
	<path class="st0" d="M8285.2,202.3c0,0,0,16-19.4,14.2c-14-1.3-38.3-5.7-38.3-5.7c-2.7-1.1-10.2-3.4-10.1-15.8"/>
	<path class="st0" d="M8224.4,132.8c0.7-3.3,4.4-51.7,7.1-70.9c2.4-17.3,16.1-14.4,16.1-14.4l39.3,4.7c0,0,13-0.3,12,15.4"/>
	<path class="st0" d="M8220.7,140c0,0,13.5,3.2,11.3,14.8c-1.8,9.9-11.3,11.7-16.1,11.1c-9.9-1.2-17-9.1-17-18.2
		c0-12.5,10-22.7,25.1-20.1"/>
	<path class="st0" d="M8219,166.5c-3.1-0.6-13.7-3.2-16.1,6.2c-2.1,8.1,2.9,16.5,14.5,19.1c4.7,1.1,12.4,0.4,14.3-6.7
		C8235.2,171.8,8222.1,167.2,8219,166.5z"/>
	<path class="st0" d="M8230.6,212c-5.4,4.5-5.6,14.7,6.1,19.2c6.5,2.5,17.4,3.4,21-1.5c2.1-2.8,5.5-11-5-14.8"/>
	<path class="st0" d="M8224,136.8c0.3-1.4,1.3-11.9,2.5-25"/>
	<path class="st0" d="M8228,81c-5.7-3.7-17.3-5-21.3,5.3c-4.2,10.8,13.8,22.5,18.6,24"/>
</g>
<g>
	<line class="st0" x1="8536.1" y1="62.2" x2="8554.5" y2="64.4"/>
	<path class="st0" d="M8565.2,202.3c0,0,0,16-19.4,14.2c-14-1.3-38.3-5.7-38.3-5.7c-2.7-1.1-10.2-3.4-10.1-15.8"/>
	<path class="st0" d="M8504.4,132.8c0.7-3.3,4.4-51.7,7.1-70.9c2.4-17.3,16.1-14.4,16.1-14.4l39.3,4.7c0,0,13-0.3,12,15.4"/>
	<path class="st0" d="M8500.7,140c0,0,13.5,3.2,11.3,14.8c-1.8,9.9-11.3,11.7-16.1,11.1c-9.9-1.2-17-9.1-17-18.2
		c0-12.5,10-22.7,25.1-20.1"/>
	<path class="st0" d="M8499,166.5c-3.1-0.6-13.7-3.2-16.1,6.2c-2.1,8.1,2.9,16.5,14.5,19.1c4.7,1.1,12.4,0.4,14.3-6.7
		C8515.2,171.8,8502.1,167.2,8499,166.5z"/>
	<path class="st0" d="M8510.6,212c-5.4,4.5-5.6,14.7,6.1,19.2c6.5,2.5,17.4,3.4,21-1.5c2.1-2.8,5.5-11-5-14.8"/>
	<path class="st0" d="M8504,136.8c0.3-1.4,1.3-11.9,2.5-25"/>
	<path class="st0" d="M8508,81c-5.7-3.7-17.3-5-21.3,5.3c-4.2,10.8,13.8,22.5,18.6,24"/>
	<g>
		<line class="st0" x1="8518.5" y1="123.4" x2="8554.5" y2="127.6"/>
		<line class="st0" x1="8516" y1="151.7" x2="8543.7" y2="155"/>
		<line class="st0" x1="8514.9" y1="166.4" x2="8534.8" y2="168.8"/>
		<line class="st0" x1="8539.7" y1="140.9" x2="8554.2" y2="142.6"/>
		<line class="st0" x1="8517.5" y1="137.9" x2="8527.7" y2="139.1"/>
	</g>
</g>
<line class="st0" x1="8298.5" y1="158" x2="8306.9" y2="156.5"/>
<path class="st0" d="M8288.6,172c1.1,8.8,4.8,16.9,9.9,19.5"/>
<path class="st0" d="M8259.2,221.2c17.6,10.5,48.6,12.3,64.5-2.2c26-23.7,15.4-51.4,12.7-59.9c-12.7-34.8-41.5-31.2-54.9-21.9
	c-9.2,6.4-21.9,24.1-11.1,33.8c3.6,3.2,8.6,4.2,13.2,2.6c4.9-1.7,6.9-3.6,9.3-7.8c1.2-2.1,2.2-4.2,3.5-6.3c0.1-0.1,0.3-0.4,0.6-0.8
	c0.5-0.7,1.2-1.8,1.9-2.9c0.8-1.3,1.7-2.6,2.4-3.7"/>
<g>
	<line class="st0" x1="8816.1" y1="62.2" x2="8834.5" y2="64.4"/>
	<path class="st0" d="M8845.2,202.3c0,0,0,16-19.4,14.2c-14-1.3-38.3-5.7-38.3-5.7c-2.7-1.1-10.2-3.4-10.1-15.8"/>
	<path class="st0" d="M8784.4,132.8c0.7-3.3,4.4-51.7,7.1-70.9c2.4-17.3,16.1-14.4,16.1-14.4l39.3,4.7c0,0,13-0.3,12,15.4"/>
	<path class="st0" d="M8780.7,140c0,0,13.5,3.2,11.3,14.8c-1.8,9.9-11.3,11.7-16.1,11.1c-9.9-1.2-17-9.1-17-18.2
		c0-12.5,10-22.7,25.1-20.1"/>
	<path class="st0" d="M8779,166.5c-3.1-0.6-13.7-3.2-16.1,6.2c-2.1,8.1,2.9,16.5,14.5,19.1c4.7,1.1,12.4,0.4,14.3-6.7
		C8795.2,171.8,8782.1,167.2,8779,166.5z"/>
	<path class="st0" d="M8790.6,212c-5.4,4.5-5.6,14.7,6.1,19.2c6.5,2.5,17.4,3.4,21-1.5c2.1-2.8,5.5-11-5-14.8"/>
	<path class="st0" d="M8784,136.8c0.3-1.4,1.3-11.9,2.5-25"/>
	<path class="st0" d="M8788,81c-5.7-3.7-17.3-5-21.3,5.3c-4.2,10.8,13.8,22.5,18.6,24"/>
	<g>
		<line class="st0" x1="8803.5" y1="73.2" x2="8831.2" y2="76.5"/>
		<line class="st0" x1="8802.4" y1="87.9" x2="8822.3" y2="90.3"/>
	</g>
</g>
<path class="st0" d="M8819.2,221.2c17.6,10.5,48.6,12.3,64.5-2.2c26-23.7,15.4-51.4,12.7-59.9c-0.8-1.9-5.6-14.8-6.4-16.8
	c-4.1-10.9-11.1-23.4-5.4-35.4c3.7-7.9,19.4-22.1,12.3-31.3c-6-7.7-16.3-2.8-22.2,1.6c-18,13.6-22,37-15.6,57.6
	c0,0,3.5,8.5-1.4,11.3c-14.8,7.5-10.4,39.9,0.7,45.4"/>
<g>
	<line class="st0" x1="9096.1" y1="62.2" x2="9114.5" y2="64.4"/>
	<path class="st0" d="M9125.2,202.3c0,0,0,16-19.4,14.2c-14-1.3-38.3-5.7-38.3-5.7c-2.7-1.1-10.2-3.4-10.1-15.8"/>
	<path class="st0" d="M9064.4,132.8c0.7-3.3,4.4-51.7,7.1-70.9c2.4-17.3,16.1-14.4,16.1-14.4l39.3,4.7c0,0,13-0.3,12,15.4"/>
	<path class="st0" d="M9060.7,140c0,0,13.5,3.2,11.3,14.8c-1.8,9.9-11.3,11.7-16.1,11.1c-9.9-1.2-17-9.1-17-18.2
		c0-12.5,10-22.7,25.1-20.1"/>
	<path class="st0" d="M9059,166.5c-3.1-0.6-13.7-3.2-16.1,6.2c-2.1,8.1,2.9,16.5,14.5,19.1c4.7,1.1,12.4,0.4,14.3-6.7
		C9075.2,171.8,9062.1,167.2,9059,166.5z"/>
	<path class="st0" d="M9070.6,212c-5.4,4.5-5.6,14.7,6.1,19.2c6.5,2.5,17.4,3.4,21-1.5c2.1-2.8,5.5-11-5-14.8"/>
	<path class="st0" d="M9064,136.8c0.3-1.4,1.3-11.9,2.5-25"/>
	<path class="st0" d="M9068,81c-5.7-3.7-17.3-5-21.3,5.3c-4.2,10.8,13.8,22.5,18.6,24"/>
</g>
<path class="st0" d="M9099.2,221.2c17.6,10.5,48.6,12.3,64.5-2.2c26-23.7,15.7-51.1,12.7-59.9c-5-14.7-27.7-33.5-19.5-53
	c3-7.1,17.1-24.8,5.2-31.5c-12.1-6.8-24,8.9-28.3,18.1c-8.6,18.1-6.5,35.7,3.6,52.3c-14.8,7.5-10.4,39.9,0.7,45.4"/>
<g>
	<line class="st0" x1="9376.1" y1="62.2" x2="9394.5" y2="64.4"/>
	<path class="st0" d="M9405.2,202.3c0,0,0,16-19.4,14.2c-14-1.3-38.3-5.7-38.3-5.7c-2.7-1.1-10.2-3.4-10.1-15.8"/>
	<path class="st0" d="M9344.4,132.8c0.7-3.3,4.4-51.7,7.1-70.9c2.4-17.3,16.1-14.4,16.1-14.4l39.3,4.7c0,0,13-0.3,12,15.4"/>
	<path class="st0" d="M9340.7,140c0,0,13.5,3.2,11.3,14.8c-1.8,9.9-11.3,11.7-16.1,11.1c-9.9-1.2-17-9.1-17-18.2
		c0-12.5,10-22.7,25.1-20.1"/>
	<path class="st0" d="M9339,166.5c-3.1-0.6-13.7-3.2-16.1,6.2c-2.1,8.1,2.9,16.5,14.5,19.1c4.7,1.1,12.4,0.4,14.3-6.7
		C9355.2,171.8,9342.1,167.2,9339,166.5z"/>
	<path class="st0" d="M9350.6,212c-5.4,4.5-5.6,14.7,6.1,19.2c6.5,2.5,17.4,3.4,21-1.5c2.1-2.8,5.5-11-5-14.8"/>
	<path class="st0" d="M9344,136.8c0.3-1.4,1.3-11.9,2.5-25"/>
	<path class="st0" d="M9348,81c-5.7-3.7-17.3-5-21.3,5.3c-4.2,10.8,13.8,22.5,18.6,24"/>
	<g>
		<line class="st0" x1="9353.5" y1="189.4" x2="9389.5" y2="193.6"/>
	</g>
</g>
<path class="st0" d="M9379.2,221.2c17.6,10.5,48.6,12.3,64.5-2.2c26-23.7,15.7-51.1,12.7-59.9c-5-14.7-27.7-33.5-19.5-53
	c3-7.1,17.1-24.8,5.2-31.5c-12.1-6.8-24,8.9-28.3,18.1c-8.6,18.1-6.5,35.7,3.6,52.3c-14.8,7.5-10.4,39.9,0.7,45.4"/>
<g>
	<line class="st0" x1="9656.1" y1="62.2" x2="9674.5" y2="64.4"/>
	<path class="st0" d="M9685.2,202.3c0,0,0,16-19.4,14.2c-14-1.3-38.3-5.7-38.3-5.7c-2.7-1.1-10.2-3.4-10.1-15.8"/>
	<path class="st0" d="M9624.4,132.8c0.7-3.3,4.4-51.7,7.1-70.9c2.4-17.3,16.1-14.4,16.1-14.4l39.3,4.7c0,0,13-0.3,12,15.4"/>
	<path class="st0" d="M9620.7,140c0,0,13.5,3.2,11.3,14.8c-1.8,9.9-11.3,11.7-16.1,11.1c-9.9-1.2-17-9.1-17-18.2
		c0-12.5,10-22.7,25.1-20.1"/>
	<path class="st0" d="M9619,166.5c-3.1-0.6-13.7-3.2-16.1,6.2c-2.1,8.1,2.9,16.5,14.5,19.1c4.7,1.1,12.4,0.4,14.3-6.7
		C9635.2,171.8,9622.1,167.2,9619,166.5z"/>
	<path class="st0" d="M9630.6,212c-5.4,4.5-5.6,14.7,6.1,19.2c6.5,2.5,17.4,3.4,21-1.5c2.1-2.8,5.5-11-5-14.8"/>
	<path class="st0" d="M9624,136.8c0.3-1.4,1.3-11.9,2.5-25"/>
	<path class="st0" d="M9628,81c-5.7-3.7-17.3-5-21.3,5.3c-4.2,10.8,13.8,22.5,18.6,24"/>
	<g>
		<line class="st0" x1="9638.5" y1="132.4" x2="9674.5" y2="136.6"/>
		<line class="st0" x1="9636" y1="160.7" x2="9663.7" y2="164"/>
		<line class="st0" x1="9634.9" y1="175.4" x2="9654.8" y2="177.8"/>
		<line class="st0" x1="9637.5" y1="146.9" x2="9674.2" y2="151.6"/>
	</g>
</g>
<path class="st0" d="M9659.2,221.2c17.6,10.5,48.6,12.3,64.5-2.2c26-23.7,15.7-51.1,12.7-59.9c-5-14.7-27.7-33.5-19.5-53
	c3-7.1,17.1-24.8,5.2-31.5c-12.1-6.8-24,8.9-28.3,18.1c-8.6,18.1-6.5,35.7,3.6,52.3c-14.8,7.5-10.4,39.9,0.7,45.4"/>
<line class="st0" x1="8580" y1="159.8" x2="8586.9" y2="158.1"/>
<path class="st0" d="M8569.6,177.5c1.7,6.5,4.8,12,8.8,14"/>
<path class="st0" d="M8539.2,221.2c17.6,10.5,48.6,12.3,64.5-2.2c26-23.7,15.4-51.4,12.7-59.9c-13.1-34.8-39.5-30.5-52.7-20.7
	c-9,6.7-20,24.5-9.2,34.2c3.6,3.2,8.6,4.2,13.2,2.6c4.9-1.7,6.2-5.4,8.6-9.6c1.2-2.1,2.2-4.2,3.5-6.3c0.1-0.1,0.3-0.4,0.6-0.8
	c0.5-0.7,1.2-1.8,1.9-2.9c0.8-1.3,1.7-2.6,2.4-3.7"/>
<line class="st0" x1="2376.1" y1="62.2" x2="2394.5" y2="64.4"/>
<path class="st0" d="M2405.2,202.3c0,0,0,16-19.4,14.2c-14-1.3-38.3-5.7-38.3-5.7c-2.7-1.1-10.2-3.4-10.1-15.8"/>
<path class="st0" d="M2344.4,132.8c0.7-3.3,4.4-51.7,7.1-70.9c2.4-17.3,16.1-14.4,16.1-14.4l39.3,4.7c0,0,13-0.3,12,15.4"/>
<path class="st0" d="M2340.7,140c0,0,13.5,3.2,11.3,14.8c-1.8,9.9-11.3,11.7-16.1,11.1c-9.9-1.2-17-9.1-17-18.2
	c0-12.5,10-22.7,25.1-20.1"/>
<path class="st0" d="M2339,166.5c-3.1-0.6-13.7-3.2-16.1,6.2c-2.1,8.1,2.9,16.5,14.5,19.1c4.6,1.1,12.4,0.4,14.3-6.7
	C2355.2,171.8,2342.1,167.2,2339,166.5z"/>
<path class="st0" d="M2350.6,212c-5.4,4.5-5.6,14.7,6.1,19.2c6.5,2.5,17.4,3.4,21-1.5c2.1-2.8,5.5-11-5-14.8"/>
<path class="st0" d="M2344,136.8c0.3-1.4,1.3-11.9,2.5-25"/>
<path class="st0" d="M2348,81c-5.7-3.7-17.3-5-21.3,5.3c-4.2,10.8,13.8,22.5,18.6,24"/>
<g>
	<polygon class="st0" points="2392.5,180 2353.8,175 2358.5,132.4 2396.9,137.2 	"/>
</g>
<g>
	<polyline class="st0" points="3522.7,76.2 3521.1,92.8 3482.4,87.8 3484.2,71.4 	"/>
</g>
<g>
	<polyline class="st0" points="2673.8,160.4 2635,155.4 2639.7,112.8 2678.2,117.7 2677.2,128.8 	"/>
</g>
<g>
	<polyline class="st0" points="2947,168.3 2913.8,164 2918.5,121.4 2956.9,126.2 2955.6,141.6 	"/>
</g>
<g>
	<polyline class="st0" points="3231.1,170.8 3193.8,166 3198.5,123.4 3236.9,128.2 3235.4,146.4 	"/>
</g>
<g>
	<polyline class="st0" points="2068.9,211.3 2071.5,188.9 2109.9,193.8 2107.7,216.3 	"/>
</g>
<path class="st0" d="M2379.2,221.2c17.6,10.5,48.6,12.3,64.5-2.2c26-23.7,15.7-51.1,12.7-59.9c-5-14.7-27.7-33.5-19.5-53
	c3-7.1,17.1-24.8,5.2-31.5c-12.1-6.8-24,8.9-28.3,18.1c-8.6,18.1-6.5,35.7,3.6,52.3c-14.8,7.5-10.4,39.9,0.7,45.4"/>
<path class="st0" d="M168,175.5c-1.6,15.8-2.8,26.8-2.8,26.8"/>
<path class="st0" d="M172.2,135c-0.6,6-1.2,11.9-1.8,17.7"/>
<path class="st0" d="M178.9,67.5c-0.1,2.2-0.7,8.6-1.6,17.5"/>
<g>
	<path class="st0" d="M4584.4,132.8c0.7-3.3,4.4-51.7,7.1-70.9c2.4-17.3,16.1-14.4,16.1-14.4l39.3,4.7c0,0,13-0.3,12,15.4"/>
	<line class="st0" x1="4616.1" y1="62.2" x2="4634.5" y2="64.4"/>
	<line class="st0" x1="4599.7" y1="112.8" x2="4635.8" y2="117.1"/>
	<line class="st0" x1="4597.3" y1="141.1" x2="4625" y2="144.4"/>
	<line class="st0" x1="4596.2" y1="155.8" x2="4616.1" y2="158.2"/>
	<line class="st0" x1="4621" y1="130.3" x2="4635.5" y2="132.1"/>
	<line class="st0" x1="4598.7" y1="127.3" x2="4609" y2="128.6"/>
	<path class="st0" d="M4645.2,202.3c0,0,0,16-19.4,14.2c-14-1.3-38.3-5.7-38.3-5.7c-2.7-1.1-10.2-3.4-10.1-15.8"/>
	<path class="st0" d="M4580.7,140c0,0,13.5,3.2,11.3,14.8c-1.8,9.9-11.3,11.7-16.1,11.1c-9.9-1.2-17-9.1-17-18.2
		c0-12.5,10-22.7,25.1-20.1"/>
	<path class="st0" d="M4579,166.5c-3.1-0.6-13.7-3.2-16.1,6.2c-2.1,8.1,2.9,16.5,14.5,19.1c4.6,1.1,12.4,0.4,14.3-6.7
		C4595.2,171.8,4582.1,167.2,4579,166.5z"/>
	<path class="st0" d="M4590.6,212c-5.4,4.5-5.6,14.7,6.1,19.2c6.5,2.5,17.4,3.4,21-1.5c2.1-2.8,5.5-11-5-14.8"/>
	<path class="st0" d="M4584,136.8c0.3-1.4,1.3-11.9,2.5-25"/>
	<path class="st0" d="M4588,81c-5.7-3.7-17.3-5-21.3,5.3c-4.2,10.8,13.8,22.5,18.6,24"/>
</g>
<path class="st0" d="M4619.2,221.2c17.6,10.5,48.6,12.3,64.5-2.2c26-23.7,15.7-51.1,12.7-59.9c-5-14.7-27.7-33.5-19.5-53
	c3-7.1,17.1-24.8,5.2-31.5c-12.1-6.8-24,8.9-28.3,18.1c-8.6,18.1-6.5,35.7,3.6,52.3c-14.8,7.5-10.4,39.9,0.7,45.4"/>
<path class="st0" d="M4648,175.5c-1.6,15.8-2.8,26.8-2.8,26.8"/>
<path class="st0" d="M4652.2,135c-0.6,6-1.2,11.9-1.8,17.7"/>
<path class="st0" d="M4658.9,67.5c-0.1,2.2-0.7,8.6-1.6,17.5"/>
<g>
	<path class="st0" d="M4864.4,132.8c0.7-3.3,4.4-51.7,7.1-70.9c2.4-17.3,16.1-14.4,16.1-14.4l39.3,4.7c0,0,13-0.3,12,15.4"/>
	<line class="st0" x1="4896.1" y1="62.2" x2="4914.5" y2="64.4"/>
	<line class="st0" x1="4879.7" y1="112.8" x2="4915.8" y2="117.1"/>
	<line class="st0" x1="4877.3" y1="141.1" x2="4905" y2="144.4"/>
	<line class="st0" x1="4876.2" y1="155.8" x2="4896.1" y2="158.2"/>
	<line class="st0" x1="4901" y1="130.3" x2="4915.5" y2="132.1"/>
	<line class="st0" x1="4878.7" y1="127.3" x2="4889" y2="128.6"/>
	<path class="st0" d="M4925.2,202.3c0,0,0,16-19.4,14.2c-14-1.3-38.3-5.7-38.3-5.7c-2.7-1.1-10.2-3.4-10.1-15.8"/>
	<path class="st0" d="M4860.7,140c0,0,13.5,3.2,11.3,14.8c-1.8,9.9-11.3,11.7-16.1,11.1c-9.9-1.2-17-9.1-17-18.2
		c0-12.5,10-22.7,25.1-20.1"/>
	<path class="st0" d="M4859,166.5c-3.1-0.6-13.7-3.2-16.1,6.2c-2.1,8.1,2.9,16.5,14.5,19.1c4.6,1.1,12.4,0.4,14.3-6.7
		C4875.2,171.8,4862.1,167.2,4859,166.5z"/>
	<path class="st0" d="M4870.6,212c-5.4,4.5-5.6,14.7,6.1,19.2c6.5,2.5,17.4,3.4,21-1.5c2.1-2.8,5.5-11-5-14.8"/>
	<path class="st0" d="M4864,136.8c0.3-1.4,1.3-11.9,2.5-25"/>
	<path class="st0" d="M4868,81c-5.7-3.7-17.3-5-21.3,5.3c-4.2,10.8,13.8,22.5,18.6,24"/>
</g>
<path class="st0" d="M4899.2,221.2c17.6,10.5,48.6,12.3,64.5-2.2c26-23.7,15.7-51.1,12.7-59.9c-5-14.7-27.7-33.5-19.5-53
	c3-7.1,17.1-24.8,5.2-31.5c-12.1-6.8-24,8.9-28.3,18.1c-8.6,18.1-6.5,35.7,3.6,52.3c-14.8,7.5-10.4,39.9,0.7,45.4"/>
<path class="st0" d="M4928,175.5c-1.6,15.8-2.8,26.8-2.8,26.8"/>
<path class="st0" d="M4932.2,135c-0.6,6-1.2,11.9-1.8,17.7"/>
<path class="st0" d="M4938.9,67.5c-0.1,2.2-0.7,8.6-1.6,17.5"/>
<g>
	<path class="st0" d="M5144.4,132.8c0.7-3.3,4.4-51.7,7.1-70.9c2.4-17.3,16.1-14.4,16.1-14.4l39.3,4.7c0,0,13-0.3,12,15.4"/>
	<line class="st0" x1="5176.1" y1="62.2" x2="5194.5" y2="64.4"/>
	<line class="st0" x1="5159.7" y1="112.8" x2="5195.8" y2="117.1"/>
	<line class="st0" x1="5157.3" y1="141.1" x2="5185" y2="144.4"/>
	<line class="st0" x1="5156.2" y1="155.8" x2="5176.1" y2="158.2"/>
	<line class="st0" x1="5181" y1="130.3" x2="5195.5" y2="132.1"/>
	<line class="st0" x1="5158.7" y1="127.3" x2="5169" y2="128.6"/>
	<path class="st0" d="M5205.2,202.3c0,0,0,16-19.4,14.2c-14-1.3-38.3-5.7-38.3-5.7c-2.7-1.1-10.2-3.4-10.1-15.8"/>
	<path class="st0" d="M5140.7,140c0,0,13.5,3.2,11.3,14.8c-1.8,9.9-11.3,11.7-16.1,11.1c-9.9-1.2-17-9.1-17-18.2
		c0-12.5,10-22.7,25.1-20.1"/>
	<path class="st0" d="M5139,166.5c-3.1-0.6-13.7-3.2-16.1,6.2c-2.1,8.1,2.9,16.5,14.5,19.1c4.6,1.1,12.4,0.4,14.3-6.7
		C5155.2,171.8,5142.1,167.2,5139,166.5z"/>
	<path class="st0" d="M5150.6,212c-5.4,4.5-5.6,14.7,6.1,19.2c6.5,2.5,17.4,3.4,21-1.5c2.1-2.8,5.5-11-5-14.8"/>
	<path class="st0" d="M5144,136.8c0.3-1.4,1.3-11.9,2.5-25"/>
	<path class="st0" d="M5148,81c-5.7-3.7-17.3-5-21.3,5.3c-4.2,10.8,13.8,22.5,18.6,24"/>
</g>
<path class="st0" d="M5179.2,221.2c17.6,10.5,48.6,12.3,64.5-2.2c26-23.7,15.7-51.1,12.7-59.9c-5-14.7-27.7-33.5-19.5-53
	c3-7.1,17.1-24.8,5.2-31.5c-12.1-6.8-24,8.9-28.3,18.1c-8.6,18.1-6.5,35.7,3.6,52.3c-14.8,7.5-10.4,39.9,0.7,45.4"/>
<path class="st0" d="M5208,175.5c-1.6,15.8-2.8,26.8-2.8,26.8"/>
<path class="st0" d="M5212.2,135c-0.6,6-1.2,11.9-1.8,17.7"/>
<path class="st0" d="M5218.9,67.5c-0.1,2.2-0.7,8.6-1.6,17.5"/>
<g>
	<path class="st0" d="M5424.4,132.8c0.7-3.3,4.4-51.7,7.1-70.9c2.4-17.3,16.1-14.4,16.1-14.4l39.3,4.7c0,0,13-0.3,12,15.4"/>
	<line class="st0" x1="5456.1" y1="62.2" x2="5474.5" y2="64.4"/>
	<line class="st0" x1="5439.7" y1="112.8" x2="5475.8" y2="117.1"/>
	<line class="st0" x1="5437.3" y1="141.1" x2="5465" y2="144.4"/>
	<line class="st0" x1="5436.2" y1="155.8" x2="5456.1" y2="158.2"/>
	<line class="st0" x1="5461" y1="130.3" x2="5475.5" y2="132.1"/>
	<line class="st0" x1="5438.7" y1="127.3" x2="5449" y2="128.6"/>
	<path class="st0" d="M5485.2,202.3c0,0,0,16-19.4,14.2c-14-1.3-38.3-5.7-38.3-5.7c-2.7-1.1-10.2-3.4-10.1-15.8"/>
	<path class="st0" d="M5420.7,140c0,0,13.5,3.2,11.3,14.8c-1.8,9.9-11.3,11.7-16.1,11.1c-9.9-1.2-17-9.1-17-18.2
		c0-12.5,10-22.7,25.1-20.1"/>
	<path class="st0" d="M5419,166.5c-3.1-0.6-13.7-3.2-16.1,6.2c-2.1,8.1,2.9,16.5,14.5,19.1c4.6,1.1,12.4,0.4,14.3-6.7
		C5435.2,171.8,5422.1,167.2,5419,166.5z"/>
	<path class="st0" d="M5430.6,212c-5.4,4.5-5.6,14.7,6.1,19.2c6.5,2.5,17.4,3.4,21-1.5c2.1-2.8,5.5-11-5-14.8"/>
	<path class="st0" d="M5424,136.8c0.3-1.4,1.3-11.9,2.5-25"/>
	<path class="st0" d="M5428,81c-5.7-3.7-17.3-5-21.3,5.3c-4.2,10.8,13.8,22.5,18.6,24"/>
</g>
<path class="st0" d="M5459.2,221.2c17.6,10.5,48.6,12.3,64.5-2.2c26-23.7,15.7-51.1,12.7-59.9c-5-14.7-27.7-33.5-19.5-53
	c3-7.1,17.1-24.8,5.2-31.5c-12.1-6.8-24,8.9-28.3,18.1c-8.6,18.1-6.5,35.7,3.6,52.3c-14.8,7.5-10.4,39.9,0.7,45.4"/>
<path class="st0" d="M5488,175.5c-1.6,15.8-2.8,26.8-2.8,26.8"/>
<path class="st0" d="M5492.2,135c-0.6,6-1.2,11.9-1.8,17.7"/>
<path class="st0" d="M5498.9,67.5c-0.1,2.2-0.7,8.6-1.6,17.5"/>
<g>
	<path class="st0" d="M5704.4,132.8c0.7-3.3,4.4-51.7,7.1-70.9c2.4-17.3,16.1-14.4,16.1-14.4l39.3,4.7c0,0,13-0.3,12,15.4"/>
	<line class="st0" x1="5736.1" y1="62.2" x2="5754.5" y2="64.4"/>
	<line class="st0" x1="5719.7" y1="112.8" x2="5755.8" y2="117.1"/>
	<line class="st0" x1="5717.3" y1="141.1" x2="5745" y2="144.4"/>
	<line class="st0" x1="5716.2" y1="155.8" x2="5736.1" y2="158.2"/>
	<line class="st0" x1="5741" y1="130.3" x2="5755.5" y2="132.1"/>
	<line class="st0" x1="5718.7" y1="127.3" x2="5729" y2="128.6"/>
	<path class="st0" d="M5765.2,202.3c0,0,0,16-19.4,14.2c-14-1.3-38.3-5.7-38.3-5.7c-2.7-1.1-10.2-3.4-10.1-15.8"/>
	<path class="st0" d="M5700.7,140c0,0,13.5,3.2,11.3,14.8c-1.8,9.9-11.3,11.7-16.1,11.1c-9.9-1.2-17-9.1-17-18.2
		c0-12.5,10-22.7,25.1-20.1"/>
	<path class="st0" d="M5699,166.5c-3.1-0.6-13.7-3.2-16.1,6.2c-2.1,8.1,2.9,16.5,14.5,19.1c4.6,1.1,12.4,0.4,14.3-6.7
		C5715.2,171.8,5702.1,167.2,5699,166.5z"/>
	<path class="st0" d="M5710.6,212c-5.4,4.5-5.6,14.7,6.1,19.2c6.5,2.5,17.4,3.4,21-1.5c2.1-2.8,5.5-11-5-14.8"/>
	<path class="st0" d="M5704,136.8c0.3-1.4,1.3-11.9,2.5-25"/>
	<path class="st0" d="M5708,81c-5.7-3.7-17.3-5-21.3,5.3c-4.2,10.8,13.8,22.5,18.6,24"/>
</g>
<path class="st0" d="M5739.2,221.2c17.6,10.5,48.6,12.3,64.5-2.2c26-23.7,15.7-51.1,12.7-59.9c-5-14.7-27.7-33.5-19.5-53
	c3-7.1,17.1-24.8,5.2-31.5c-12.1-6.8-24,8.9-28.3,18.1c-8.6,18.1-6.5,35.7,3.6,52.3c-14.8,7.5-10.4,39.9,0.7,45.4"/>
<path class="st0" d="M5768,175.5c-1.6,15.8-2.8,26.8-2.8,26.8"/>
<path class="st0" d="M5772.2,135c-0.6,6-1.2,11.9-1.8,17.7"/>
<path class="st0" d="M5778.9,67.5c-0.1,2.2-0.7,8.6-1.6,17.5"/>
<g>
	<path class="st0" d="M5984.4,132.8c0.7-3.3,4.4-51.7,7.1-70.9c2.4-17.3,16.1-14.4,16.1-14.4l39.3,4.7c0,0,13-0.3,12,15.4"/>
	<line class="st0" x1="6016.1" y1="62.2" x2="6034.5" y2="64.4"/>
	<line class="st0" x1="5999.7" y1="112.8" x2="6035.8" y2="117.1"/>
	<line class="st0" x1="5997.3" y1="141.1" x2="6025" y2="144.4"/>
	<line class="st0" x1="5996.2" y1="155.8" x2="6016.1" y2="158.2"/>
	<line class="st0" x1="6021" y1="130.3" x2="6035.5" y2="132.1"/>
	<line class="st0" x1="5998.7" y1="127.3" x2="6009" y2="128.6"/>
	<path class="st0" d="M6045.2,202.3c0,0,0,16-19.4,14.2c-14-1.3-38.3-5.7-38.3-5.7c-2.7-1.1-10.2-3.4-10.1-15.8"/>
	<path class="st0" d="M5980.7,140c0,0,13.5,3.2,11.3,14.8c-1.8,9.9-11.3,11.7-16.1,11.1c-9.9-1.2-17-9.1-17-18.2
		c0-12.5,10-22.7,25.1-20.1"/>
	<path class="st0" d="M5979,166.5c-3.1-0.6-13.7-3.2-16.1,6.2c-2.1,8.1,2.9,16.5,14.5,19.1c4.6,1.1,12.4,0.4,14.3-6.7
		C5995.2,171.8,5982.1,167.2,5979,166.5z"/>
	<path class="st0" d="M5990.6,212c-5.4,4.5-5.6,14.7,6.1,19.2c6.5,2.5,17.4,3.4,21-1.5c2.1-2.8,5.5-11-5-14.8"/>
	<path class="st0" d="M5984,136.8c0.3-1.4,1.3-11.9,2.5-25"/>
	<path class="st0" d="M5988,81c-5.7-3.7-17.3-5-21.3,5.3c-4.2,10.8,13.8,22.5,18.6,24"/>
</g>
<path class="st0" d="M6019.2,221.2c17.6,10.5,48.6,12.3,64.5-2.2c26-23.7,15.7-51.1,12.7-59.9c-5-14.7-27.7-33.5-19.5-53
	c3-7.1,17.1-24.8,5.2-31.5c-12.1-6.8-24,8.9-28.3,18.1c-8.6,18.1-6.5,35.7,3.6,52.3c-14.8,7.5-10.4,39.9,0.7,45.4"/>
<path class="st0" d="M6048,175.5c-1.6,15.8-2.8,26.8-2.8,26.8"/>
<path class="st0" d="M6052.2,135c-0.6,6-1.2,11.9-1.8,17.7"/>
<path class="st0" d="M6058.9,67.5c-0.1,2.2-0.7,8.6-1.6,17.5"/>
<g>
	<path class="st0" d="M6264.4,132.8c0.7-3.3,4.4-51.7,7.1-70.9c2.4-17.3,16.1-14.4,16.1-14.4l39.3,4.7c0,0,13-0.3,12,15.4"/>
	<line class="st0" x1="6296.1" y1="62.2" x2="6314.5" y2="64.4"/>
	<line class="st0" x1="6279.7" y1="112.8" x2="6315.8" y2="117.1"/>
	<line class="st0" x1="6277.3" y1="141.1" x2="6305" y2="144.4"/>
	<line class="st0" x1="6276.2" y1="155.8" x2="6296.1" y2="158.2"/>
	<line class="st0" x1="6301" y1="130.3" x2="6315.5" y2="132.1"/>
	<line class="st0" x1="6278.7" y1="127.3" x2="6289" y2="128.6"/>
	<path class="st0" d="M6325.2,202.3c0,0,0,16-19.4,14.2c-14-1.3-38.3-5.7-38.3-5.7c-2.7-1.1-10.2-3.4-10.1-15.8"/>
	<path class="st0" d="M6260.7,140c0,0,13.5,3.2,11.3,14.8c-1.8,9.9-11.3,11.7-16.1,11.1c-9.9-1.2-17-9.1-17-18.2
		c0-12.5,10-22.7,25.1-20.1"/>
	<path class="st0" d="M6259,166.5c-3.1-0.6-13.7-3.2-16.1,6.2c-2.1,8.1,2.9,16.5,14.5,19.1c4.6,1.1,12.4,0.4,14.3-6.7
		C6275.2,171.8,6262.1,167.2,6259,166.5z"/>
	<path class="st0" d="M6270.6,212c-5.4,4.5-5.6,14.7,6.1,19.2c6.5,2.5,17.4,3.4,21-1.5c2.1-2.8,5.5-11-5-14.8"/>
	<path class="st0" d="M6264,136.8c0.3-1.4,1.3-11.9,2.5-25"/>
	<path class="st0" d="M6268,81c-5.7-3.7-17.3-5-21.3,5.3c-4.2,10.8,13.8,22.5,18.6,24"/>
</g>
<path class="st0" d="M6299.2,221.2c17.6,10.5,48.6,12.3,64.5-2.2c26-23.7,15.7-51.1,12.7-59.9c-5-14.7-27.7-33.5-19.5-53
	c3-7.1,17.1-24.8,5.2-31.5c-12.1-6.8-24,8.9-28.3,18.1c-8.6,18.1-6.5,35.7,3.6,52.3c-14.8,7.5-10.4,39.9,0.7,45.4"/>
<path class="st0" d="M6328,175.5c-1.6,15.8-2.8,26.8-2.8,26.8"/>
<path class="st0" d="M6332.2,135c-0.6,6-1.2,11.9-1.8,17.7"/>
<path class="st0" d="M6338.9,67.5c-0.1,2.2-0.7,8.6-1.6,17.5"/>
<g>
	<path class="st0" d="M6544.4,132.8c0.7-3.3,4.4-51.7,7.1-70.9c2.4-17.3,16.1-14.4,16.1-14.4l39.3,4.7c0,0,13-0.3,12,15.4"/>
	<line class="st0" x1="6576.1" y1="62.2" x2="6594.5" y2="64.4"/>
	<line class="st0" x1="6559.7" y1="112.8" x2="6595.8" y2="117.1"/>
	<line class="st0" x1="6557.3" y1="141.1" x2="6585" y2="144.4"/>
	<line class="st0" x1="6556.2" y1="155.8" x2="6576.1" y2="158.2"/>
	<line class="st0" x1="6581" y1="130.3" x2="6595.5" y2="132.1"/>
	<line class="st0" x1="6558.7" y1="127.3" x2="6569" y2="128.6"/>
	<path class="st0" d="M6605.2,202.3c0,0,0,16-19.4,14.2c-14-1.3-38.3-5.7-38.3-5.7c-2.7-1.1-10.2-3.4-10.1-15.8"/>
	<path class="st0" d="M6540.7,140c0,0,13.5,3.2,11.3,14.8c-1.8,9.9-11.3,11.7-16.1,11.1c-9.9-1.2-17-9.1-17-18.2
		c0-12.5,10-22.7,25.1-20.1"/>
	<path class="st0" d="M6539,166.5c-3.1-0.6-13.7-3.2-16.1,6.2c-2.1,8.1,2.9,16.5,14.5,19.1c4.6,1.1,12.4,0.4,14.3-6.7
		C6555.2,171.8,6542.1,167.2,6539,166.5z"/>
	<path class="st0" d="M6550.6,212c-5.4,4.5-5.6,14.7,6.1,19.2c6.5,2.5,17.4,3.4,21-1.5c2.1-2.8,5.5-11-5-14.8"/>
	<path class="st0" d="M6544,136.8c0.3-1.4,1.3-11.9,2.5-25"/>
	<path class="st0" d="M6548,81c-5.7-3.7-17.3-5-21.3,5.3c-4.2,10.8,13.8,22.5,18.6,24"/>
</g>
<path class="st0" d="M6579.2,221.2c17.6,10.5,48.6,12.3,64.5-2.2c26-23.7,15.7-51.1,12.7-59.9c-5-14.7-27.7-33.5-19.5-53
	c3-7.1,17.1-24.8,5.2-31.5c-12.1-6.8-24,8.9-28.3,18.1c-8.6,18.1-6.5,35.7,3.6,52.3c-14.8,7.5-10.4,39.9,0.7,45.4"/>
<path class="st0" d="M6608,175.5c-1.6,15.8-2.8,26.8-2.8,26.8"/>
<path class="st0" d="M6612.2,135c-0.6,6-1.2,11.9-1.8,17.7"/>
<path class="st0" d="M6618.9,67.5c-0.1,2.2-0.7,8.6-1.6,17.5"/>
<g>
	<path class="st0" d="M6824.4,132.8c0.7-3.3,4.4-51.7,7.1-70.9c2.4-17.3,16.1-14.4,16.1-14.4l39.3,4.7c0,0,13-0.3,12,15.4"/>
	<line class="st0" x1="6856.1" y1="62.2" x2="6874.5" y2="64.4"/>
	<line class="st0" x1="6839.7" y1="112.8" x2="6875.8" y2="117.1"/>
	<line class="st0" x1="6837.3" y1="141.1" x2="6865" y2="144.4"/>
	<line class="st0" x1="6836.2" y1="155.8" x2="6856.1" y2="158.2"/>
	<line class="st0" x1="6861" y1="130.3" x2="6875.5" y2="132.1"/>
	<line class="st0" x1="6838.7" y1="127.3" x2="6849" y2="128.6"/>
	<path class="st0" d="M6885.2,202.3c0,0,0,16-19.4,14.2c-14-1.3-38.3-5.7-38.3-5.7c-2.7-1.1-10.2-3.4-10.1-15.8"/>
	<path class="st0" d="M6820.7,140c0,0,13.5,3.2,11.3,14.8c-1.8,9.9-11.3,11.7-16.1,11.1c-9.9-1.2-17-9.1-17-18.2
		c0-12.5,10-22.7,25.1-20.1"/>
	<path class="st0" d="M6819,166.5c-3.1-0.6-13.7-3.2-16.1,6.2c-2.1,8.1,2.9,16.5,14.5,19.1c4.6,1.1,12.4,0.4,14.3-6.7
		C6835.2,171.8,6822.1,167.2,6819,166.5z"/>
	<path class="st0" d="M6830.6,212c-5.4,4.5-5.6,14.7,6.1,19.2c6.5,2.5,17.4,3.4,21-1.5c2.1-2.8,5.5-11-5-14.8"/>
	<path class="st0" d="M6824,136.8c0.3-1.4,1.3-11.9,2.5-25"/>
	<path class="st0" d="M6828,81c-5.7-3.7-17.3-5-21.3,5.3c-4.2,10.8,13.8,22.5,18.6,24"/>
</g>
<path class="st0" d="M6859.2,221.2c17.6,10.5,48.6,12.3,64.5-2.2c26-23.7,15.7-51.1,12.7-59.9c-5-14.7-27.7-33.5-19.5-53
	c3-7.1,17.1-24.8,5.2-31.5c-12.1-6.8-24,8.9-28.3,18.1c-8.6,18.1-6.5,35.7,3.6,52.3c-14.8,7.5-10.4,39.9,0.7,45.4"/>
<path class="st0" d="M6888,175.5c-1.6,15.8-2.8,26.8-2.8,26.8"/>
<path class="st0" d="M6892.2,135c-0.6,6-1.2,11.9-1.8,17.7"/>
<path class="st0" d="M6898.9,67.5c-0.1,2.2-0.7,8.6-1.6,17.5"/>
<g>
	<path class="st0" d="M7104.4,132.8c0.7-3.3,4.4-51.7,7.1-70.9c2.4-17.3,16.1-14.4,16.1-14.4l39.3,4.7c0,0,13-0.3,12,15.4"/>
	<line class="st0" x1="7136.1" y1="62.2" x2="7154.5" y2="64.4"/>
	<line class="st0" x1="7119.7" y1="112.8" x2="7155.8" y2="117.1"/>
	<line class="st0" x1="7117.3" y1="141.1" x2="7145" y2="144.4"/>
	<line class="st0" x1="7116.2" y1="155.8" x2="7136.1" y2="158.2"/>
	<line class="st0" x1="7141" y1="130.3" x2="7155.5" y2="132.1"/>
	<line class="st0" x1="7118.7" y1="127.3" x2="7129" y2="128.6"/>
	<path class="st0" d="M7165.2,202.3c0,0,0,16-19.4,14.2c-14-1.3-38.3-5.7-38.3-5.7c-2.7-1.1-10.2-3.4-10.1-15.8"/>
	<path class="st0" d="M7100.7,140c0,0,13.5,3.2,11.3,14.8c-1.8,9.9-11.3,11.7-16.1,11.1c-9.9-1.2-17-9.1-17-18.2
		c0-12.5,10-22.7,25.1-20.1"/>
	<path class="st0" d="M7099,166.5c-3.1-0.6-13.7-3.2-16.1,6.2c-2.1,8.1,2.9,16.5,14.5,19.1c4.6,1.1,12.4,0.4,14.3-6.7
		C7115.2,171.8,7102.1,167.2,7099,166.5z"/>
	<path class="st0" d="M7110.6,212c-5.4,4.5-5.6,14.7,6.1,19.2c6.5,2.5,17.4,3.4,21-1.5c2.1-2.8,5.5-11-5-14.8"/>
	<path class="st0" d="M7104,136.8c0.3-1.4,1.3-11.9,2.5-25"/>
	<path class="st0" d="M7108,81c-5.7-3.7-17.3-5-21.3,5.3c-4.2,10.8,13.8,22.5,18.6,24"/>
</g>
<path class="st0" d="M7139.2,221.2c17.6,10.5,48.6,12.3,64.5-2.2c26-23.7,15.7-51.1,12.7-59.9c-5-14.7-27.7-33.5-19.5-53
	c3-7.1,17.1-24.8,5.2-31.5c-12.1-6.8-24,8.9-28.3,18.1c-8.6,18.1-6.5,35.7,3.6,52.3c-14.8,7.5-10.4,39.9,0.7,45.4"/>
<path class="st0" d="M7168,175.5c-1.6,15.8-2.8,26.8-2.8,26.8"/>
<path class="st0" d="M7172.2,135c-0.6,6-1.2,11.9-1.8,17.7"/>
<path class="st0" d="M7178.9,67.5c-0.1,2.2-0.7,8.6-1.6,17.5"/>
<g>
	<path class="st0" d="M7384.4,132.8c0.7-3.3,4.4-51.7,7.1-70.9c2.4-17.3,16.1-14.4,16.1-14.4l39.3,4.7c0,0,13-0.3,12,15.4"/>
	<line class="st0" x1="7416.1" y1="62.2" x2="7434.5" y2="64.4"/>
	<line class="st0" x1="7399.7" y1="112.8" x2="7435.8" y2="117.1"/>
	<line class="st0" x1="7397.3" y1="141.1" x2="7425" y2="144.4"/>
	<line class="st0" x1="7396.2" y1="155.8" x2="7416.1" y2="158.2"/>
	<line class="st0" x1="7421" y1="130.3" x2="7435.5" y2="132.1"/>
	<line class="st0" x1="7398.7" y1="127.3" x2="7409" y2="128.6"/>
	<path class="st0" d="M7445.2,202.3c0,0,0,16-19.4,14.2c-14-1.3-38.3-5.7-38.3-5.7c-2.7-1.1-10.2-3.4-10.1-15.8"/>
	<path class="st0" d="M7380.7,140c0,0,13.5,3.2,11.3,14.8c-1.8,9.9-11.3,11.7-16.1,11.1c-9.9-1.2-17-9.1-17-18.2
		c0-12.5,10-22.7,25.1-20.1"/>
	<path class="st0" d="M7379,166.5c-3.1-0.6-13.7-3.2-16.1,6.2c-2.1,8.1,2.9,16.5,14.5,19.1c4.6,1.1,12.4,0.4,14.3-6.7
		C7395.2,171.8,7382.1,167.2,7379,166.5z"/>
	<path class="st0" d="M7390.6,212c-5.4,4.5-5.6,14.7,6.1,19.2c6.5,2.5,17.4,3.4,21-1.5c2.1-2.8,5.5-11-5-14.8"/>
	<path class="st0" d="M7384,136.8c0.3-1.4,1.3-11.9,2.5-25"/>
	<path class="st0" d="M7388,81c-5.7-3.7-17.3-5-21.3,5.3c-4.2,10.8,13.8,22.5,18.6,24"/>
</g>
<path class="st0" d="M7419.2,221.2c17.6,10.5,48.6,12.3,64.5-2.2c26-23.7,15.7-51.1,12.7-59.9c-5-14.7-27.7-33.5-19.5-53
	c3-7.1,17.1-24.8,5.2-31.5c-12.1-6.8-24,8.9-28.3,18.1c-8.6,18.1-6.5,35.7,3.6,52.3c-14.8,7.5-10.4,39.9,0.7,45.4"/>
<path class="st0" d="M7448,175.5c-1.6,15.8-2.8,26.8-2.8,26.8"/>
<path class="st0" d="M7452.2,135c-0.6,6-1.2,11.9-1.8,17.7"/>
<path class="st0" d="M7458.9,67.5c-0.1,2.2-0.7,8.6-1.6,17.5"/>
<g>
	<path class="st0" d="M7664.4,132.8c0.7-3.3,4.4-51.7,7.1-70.9c2.4-17.3,16.1-14.4,16.1-14.4l39.3,4.7c0,0,13-0.3,12,15.4"/>
	<line class="st0" x1="7696.1" y1="62.2" x2="7714.5" y2="64.4"/>
	<line class="st0" x1="7679.7" y1="112.8" x2="7715.8" y2="117.1"/>
	<line class="st0" x1="7677.3" y1="141.1" x2="7705" y2="144.4"/>
	<line class="st0" x1="7676.2" y1="155.8" x2="7696.1" y2="158.2"/>
	<line class="st0" x1="7701" y1="130.3" x2="7715.5" y2="132.1"/>
	<line class="st0" x1="7678.7" y1="127.3" x2="7689" y2="128.6"/>
	<path class="st0" d="M7725.2,202.3c0,0,0,16-19.4,14.2c-14-1.3-38.3-5.7-38.3-5.7c-2.7-1.1-10.2-3.4-10.1-15.8"/>
	<path class="st0" d="M7660.7,140c0,0,13.5,3.2,11.3,14.8c-1.8,9.9-11.3,11.7-16.1,11.1c-9.9-1.2-17-9.1-17-18.2
		c0-12.5,10-22.7,25.1-20.1"/>
	<path class="st0" d="M7659,166.5c-3.1-0.6-13.7-3.2-16.1,6.2c-2.1,8.1,2.9,16.5,14.5,19.1c4.6,1.1,12.4,0.4,14.3-6.7
		C7675.2,171.8,7662.1,167.2,7659,166.5z"/>
	<path class="st0" d="M7670.6,212c-5.4,4.5-5.6,14.7,6.1,19.2c6.5,2.5,17.4,3.4,21-1.5c2.1-2.8,5.5-11-5-14.8"/>
	<path class="st0" d="M7664,136.8c0.3-1.4,1.3-11.9,2.5-25"/>
	<path class="st0" d="M7668,81c-5.7-3.7-17.3-5-21.3,5.3c-4.2,10.8,13.8,22.5,18.6,24"/>
</g>
<path class="st0" d="M7699.2,221.2c17.6,10.5,48.6,12.3,64.5-2.2c26-23.7,15.7-51.1,12.7-59.9c-5-14.7-27.7-33.5-19.5-53
	c3-7.1,17.1-24.8,5.2-31.5c-12.1-6.8-24,8.9-28.3,18.1c-8.6,18.1-6.5,35.7,3.6,52.3c-14.8,7.5-10.4,39.9,0.7,45.4"/>
<path class="st0" d="M7728,175.5c-1.6,15.8-2.8,26.8-2.8,26.8"/>
<path class="st0" d="M7732.2,135c-0.6,6-1.2,11.9-1.8,17.7"/>
<path class="st0" d="M7738.9,67.5c-0.1,2.2-0.7,8.6-1.6,17.5"/>
<g>
	<path class="st0" d="M384.4,132.8c0.7-3.3,4.4-51.7,7.1-70.9c2.4-17.3,16.1-14.4,16.1-14.4l39.3,4.7c0,0,13-0.3,12,15.4"/>
	<line class="st0" x1="416.1" y1="62.2" x2="434.5" y2="64.4"/>
	<line class="st0" x1="399.7" y1="112.8" x2="435.8" y2="117.1"/>
	<line class="st0" x1="397.3" y1="141.1" x2="425" y2="144.4"/>
	<line class="st0" x1="398.7" y1="127.3" x2="435.5" y2="132.1"/>
	<path class="st0" d="M445.2,202.3c0,0,0,16-19.4,14.2c-14-1.3-38.3-5.7-38.3-5.7c-2.7-1.1-10.2-3.4-10.1-15.8"/>
	<path class="st0" d="M380.7,140c0,0,13.5,3.2,11.3,14.8c-1.8,9.9-11.3,11.7-16.1,11.1c-9.9-1.2-17-9.1-17-18.2
		c0-12.5,10-22.7,25.1-20.1"/>
	<path class="st0" d="M379,166.5c-3.1-0.6-13.7-3.2-16.1,6.2c-2.1,8.1,2.9,16.5,14.5,19.1c4.6,1.1,12.4,0.4,14.3-6.7
		C395.2,171.8,382.1,167.2,379,166.5z"/>
	<path class="st0" d="M390.6,212c-5.4,4.5-5.6,14.7,6.1,19.2c6.5,2.5,17.4,3.4,21-1.5c2.1-2.8,5.5-11-5-14.8"/>
	<path class="st0" d="M384,136.8c0.3-1.4,1.3-11.9,2.5-25"/>
	<path class="st0" d="M388,81c-5.7-3.7-17.3-5-21.3,5.3c-4.2,10.8,13.8,22.5,18.6,24"/>
</g>
<path class="st0" d="M419.2,221.2c17.6,10.5,48.6,12.3,64.5-2.2c26-23.7,15.7-51.1,12.7-59.9c-5-14.7-27.7-33.5-19.5-53
	c3-7.1,17.1-24.8,5.2-31.5c-12.1-6.8-24,8.9-28.3,18.1c-8.6,18.1-6.5,35.7,3.6,52.3c-14.8,7.5-10.4,39.9,0.7,45.4"/>
<path class="st0" d="M448,175.5c-1.6,15.8-2.8,26.8-2.8,26.8"/>
<path class="st0" d="M452.2,135c-0.6,6-1.2,11.9-1.8,17.7"/>
<path class="st0" d="M458.9,67.5c-0.1,2.2-0.7,8.6-1.6,17.5"/>
<line class="st0" x1="1300" y1="159.8" x2="1306.9" y2="158.1"/>
<path class="st0" d="M1289.6,177.5c1.7,6.5,4.8,12,8.8,14"/>
<path class="st0" d="M1259.2,221.2c17.6,10.5,48.6,12.3,64.5-2.2c26-23.7,15.4-51.4,12.7-59.9c-13.1-34.8-39.5-30.5-52.7-20.7
	c-9,6.7-20,24.5-9.2,34.2c3.6,3.2,8.6,4.2,13.2,2.6c4.9-1.7,6.2-5.4,8.6-9.6c1.2-2.1,2.2-4.2,3.5-6.3c0.1-0.1,0.3-0.4,0.6-0.8
	c0.5-0.7,1.2-1.8,1.9-2.9c0.8-1.3,1.7-2.6,2.4-3.7"/>
</svg>
