<svg xmlns="http://www.w3.org/2000/svg" viewBox="0 0 800 800"><defs><style>.cls-1{fill:none;stroke:#040404;stroke-linecap:round;stroke-linejoin:round;stroke-width:29.28px;}</style></defs><title>Hender</title><g id="Layer_2" data-name="Layer 2"><path class="cls-1" d="M164.33,563.62c-31.42,7.09-29.12,53.11,7.69,69.21"/><path class="cls-1" d="M321.59,701.87c62.13,46,188.17,56.53,251.19-.2,100.56-90.52,58.17-196.56,44-229.22-23.93-55.36-98.13-113.63-67.69-186,11.12-26.43,63.39-91.9,19.15-116.8-44.89-25.27-89,33.15-105.15,67.2-31.87,67.12-24.25,132.37,13.34,194-54.91,27.73-38.7,147.84,2.72,168.55"/><path class="cls-1" d="M206.54,385.48c2.42-12.1,16.38-191.86,26.23-262.88,8.89-64.12,59.78-53.5,59.78-53.5L438.18,86.37s48.28-1.24,44.57,56.95c-2.67,41.9-7,68.43-7,68.43"/><path class="cls-1" d="M455,387.75,432,643.48s0,59.42-71.85,52.64c-52-4.91-142.09-21.28-142.09-21.28-11.51-4.6-46-15-35.67-80.54"/><path class="cls-1" d="M215.74,145s-45.44-23.59-55.8,21.28c-10,43.53,27.61,75.93,58.68,81.11"/><path class="cls-1" d="M264.94,186c-2.44,23.59-9.43,68.69,45.62,74.38l-3,29.15c-.79,7.63,3.58,10.66,9.6,6.6s38.65-30.14,38.65-30.14l25.44,2.63s52.41,4.13,58.89-58.68c6.72-65.11-39.63-67.91-39.63-67.91L323.6,134S270.91,128.13,264.94,186Z"/><path class="cls-1" d="M195,476.37c-23.69-5.06-52.07-14.64-59.83,23C129,529.69,155.33,559.21,190,567.92c17.2,4.32,44.73,3.8,52.16-22.52,12.66-44.87-40.27-66.73-40.27-66.73"/><path class="cls-1" d="M208.84,375.12s41.92,18,34.52,57.53c-6.9,36.82-42,43.62-59.83,41.42-36.77-4.55-63.28-38.49-63.28-67.88,0-48.32,43.14-74.21,74.21-74.21"/><circle class="cls-1" cx="325.46" cy="352.41" r="9.67"/><circle class="cls-1" cx="359.02" cy="357.5" r="9.67"/><circle class="cls-1" cx="392.08" cy="362.58" r="9.67"/></g></svg>